<?xml version="1.0" encoding="iso-8859-1"?>
<!-- Generator: Adobe Illustrator 18.0.0, SVG Export Plug-In . SVG Version: 6.00 Build 0)  -->
<!DOCTYPE svg PUBLIC "-//W3C//DTD SVG 1.1//EN" "http://www.w3.org/Graphics/SVG/1.1/DTD/svg11.dtd">
<svg version="1.1" id="Capa_1" xmlns="http://www.w3.org/2000/svg" xmlns:xlink="http://www.w3.org/1999/xlink" x="0px" y="0px"
	 viewBox="0 0 474.816 474.816" style="enable-background:new 0 0 474.816 474.816;" xml:space="preserve">
<g>
	<path d="M473.476,450.484L248.955,61.602l21.517-37.269c2.762-4.783,1.123-10.899-3.66-13.66c-4.782-2.762-10.899-1.123-13.66,3.66
		l-15.744,27.269l-15.744-27.269c-2.761-4.783-8.877-6.422-13.66-3.66c-4.783,2.761-6.422,8.877-3.66,13.66l21.517,37.269
		L1.34,450.484c-1.787,3.094-1.787,6.906,0,10c1.786,3.094,5.087,5,8.66,5h454.816c3.573,0,6.874-1.906,8.66-5
		C475.263,457.39,475.263,453.578,473.476,450.484z M237.408,345.957l57.462,99.528H179.946L237.408,345.957z M246.068,320.957
		c-1.786-3.094-5.087-5-8.66-5s-6.874,1.906-8.66,5l-48.744,84.426H50.473l52.992-91.785h267.886l52.993,91.787H294.813
		L246.068,320.957z M237.408,81.603l76.208,131.995H161.201L237.408,81.603z M325.163,233.598l11.536,19.98l-17.416,11.91
		l-35.295-24.139c-3.403-2.328-7.886-2.328-11.291,0l-35.294,24.139l-35.295-24.139c-3.403-2.328-7.888-2.328-11.29,0l-35.296,24.14
		l-17.407-11.902l11.54-19.988H325.163z M149.878,285.858c3.403,2.327,7.887,2.327,11.289-0.001l35.295-24.139l35.294,24.139
		c1.702,1.164,3.674,1.746,5.646,1.746s3.943-0.582,5.645-1.746l35.295-24.139l35.295,24.139c3.403,2.328,7.886,2.328,11.29,0
		l21.801-14.908l13.076,22.649H115.012l13.072-22.641L149.878,285.858z M38.926,425.383h129.531l-11.606,20.102H27.32
		L38.926,425.383z M317.964,445.484l-11.605-20.1h129.531l11.605,20.1H317.964z"/>
	<path d="M128.437,343.664c-3.905-3.905-10.237-3.905-14.143,0l-2.431,2.431l-2.431-2.431c-3.905-3.905-10.237-3.905-14.143,0
		c-3.905,3.905-3.905,10.237,0,14.142l2.431,2.431l-2.431,2.431c-3.905,3.905-3.905,10.237,0,14.142
		c1.953,1.953,4.512,2.929,7.071,2.929s5.119-0.976,7.071-2.929l2.431-2.431l2.431,2.431c1.953,1.953,4.512,2.929,7.071,2.929
		s5.119-0.976,7.071-2.929c3.905-3.905,3.905-10.237,0-14.142l-2.431-2.431l2.431-2.431
		C132.341,353.901,132.341,347.569,128.437,343.664z"/>
	<path d="M182.69,343.664c-3.905-3.905-10.237-3.905-14.143,0l-2.431,2.431l-2.431-2.431c-3.905-3.905-10.237-3.905-14.143,0
		c-3.905,3.905-3.905,10.237,0,14.142l2.431,2.431l-2.431,2.431c-3.905,3.905-3.905,10.237,0,14.142
		c1.953,1.953,4.512,2.929,7.071,2.929s5.119-0.976,7.071-2.929l2.431-2.431l2.431,2.431c1.953,1.953,4.512,2.929,7.071,2.929
		s5.119-0.976,7.071-2.929c3.905-3.905,3.905-10.237,0-14.142l-2.431-2.431l2.431-2.431
		C186.594,353.901,186.594,347.569,182.69,343.664z"/>
	<path d="M325.274,343.664c-3.905-3.905-10.237-3.905-14.143,0l-2.431,2.431l-2.431-2.431c-3.905-3.905-10.237-3.905-14.143,0
		c-3.905,3.905-3.905,10.237,0,14.142l2.431,2.431l-2.431,2.431c-3.905,3.905-3.905,10.237,0,14.142
		c1.953,1.953,4.512,2.929,7.071,2.929s5.119-0.976,7.071-2.929l2.431-2.431l2.431,2.431c1.953,1.953,4.512,2.929,7.071,2.929
		s5.119-0.976,7.071-2.929c3.905-3.905,3.905-10.237,0-14.142l-2.431-2.431l2.431-2.431
		C329.179,353.901,329.179,347.569,325.274,343.664z"/>
	<path d="M377.096,360.237l2.431-2.431c3.905-3.905,3.905-10.237,0-14.142c-3.905-3.905-10.237-3.905-14.143,0l-2.431,2.431
		l-2.431-2.431c-3.905-3.905-10.237-3.905-14.143,0c-3.905,3.905-3.905,10.237,0,14.142l2.431,2.431l-2.431,2.431
		c-3.905,3.905-3.905,10.237,0,14.142c1.953,1.953,4.512,2.929,7.071,2.929s5.119-0.976,7.071-2.929l2.431-2.431l2.431,2.431
		c1.953,1.953,4.512,2.929,7.071,2.929s5.119-0.976,7.071-2.929c3.905-3.905,3.905-10.237,0-14.142L377.096,360.237z"/>
</g>
<g>
</g>
<g>
</g>
<g>
</g>
<g>
</g>
<g>
</g>
<g>
</g>
<g>
</g>
<g>
</g>
<g>
</g>
<g>
</g>
<g>
</g>
<g>
</g>
<g>
</g>
<g>
</g>
<g>
</g>
</svg>
