<?xml version="1.0" encoding="UTF-8" standalone="no"?>
<!DOCTYPE svg PUBLIC "-//W3C//DTD SVG 20010904//EN"
              "http://www.w3.org/TR/2001/REC-SVG-20010904/DTD/svg10.dtd">

<svg xmlns="http://www.w3.org/2000/svg"
     width="20.4167in" height="20.125in"
     viewBox="0 0 1470 1449">
  <path id="Selection"
        fill = "param(fill) #FFF" stroke = "param (outline)# 000" stroke-width = "param (outline-width)1"
        d="M 833.00,1065.00
           C 822.39,1066.40 810.71,1066.90 802.17,1059.23
             795.57,1053.30 788.43,1039.98 788.04,1031.00
             787.84,1026.54 788.53,1024.91 788.83,1021.00
             789.54,1011.76 783.93,1012.42 779.00,1010.38
             779.00,1010.38 773.00,1007.25 773.00,1007.25
             766.72,1003.99 764.45,1005.48 758.00,1004.72
             744.71,1003.14 727.65,1000.17 722.79,1017.00
             722.04,1019.59 721.94,1022.32 722.04,1025.00
             722.04,1025.00 723.78,1040.00 723.78,1040.00
             724.06,1044.10 723.24,1046.77 724.55,1051.00
             728.38,1063.36 738.42,1077.93 735.62,1092.00
             735.62,1092.00 727.68,1113.00 727.68,1113.00
             721.04,1130.96 708.30,1162.88 692.96,1174.37
             686.00,1179.58 664.05,1186.47 655.00,1189.69
             655.00,1189.69 634.00,1197.51 634.00,1197.51
             634.00,1197.51 619.00,1205.68 619.00,1205.68
             619.00,1205.68 611.00,1209.32 611.00,1209.32
             611.00,1209.32 584.00,1228.08 584.00,1228.08
             575.63,1233.11 573.11,1231.82 567.00,1234.35
             561.90,1236.46 556.56,1240.25 551.00,1240.80
             541.70,1241.72 537.72,1234.79 531.00,1230.04
             522.25,1223.86 514.77,1222.36 505.04,1214.33
             497.83,1208.39 497.92,1203.81 492.90,1199.78
             488.57,1196.31 483.35,1194.49 479.26,1189.91
             473.63,1183.59 474.87,1178.39 471.82,1172.00
             471.82,1172.00 466.31,1163.00 466.31,1163.00
             466.31,1163.00 453.10,1138.00 453.10,1138.00
             450.57,1130.44 453.78,1124.68 449.01,1115.00
             443.72,1104.28 424.77,1088.64 418.93,1079.00
             415.20,1072.84 415.45,1069.35 414.13,1066.00
             412.68,1062.32 410.39,1060.59 409.43,1057.00
             408.25,1052.59 410.12,1047.39 407.56,1042.00
             404.49,1035.54 396.38,1027.99 391.90,1022.00
             384.08,1011.56 387.38,1011.01 384.26,1006.00
             384.26,1006.00 374.92,995.00 374.92,995.00
             368.28,985.00 377.89,974.44 369.58,966.51
             366.95,963.99 362.92,963.95 358.79,958.83
             353.95,952.83 351.60,943.00 347.07,937.04
             347.07,937.04 341.20,930.83 341.20,930.83
             341.20,930.83 327.53,913.00 327.53,913.00
             324.41,907.49 326.17,905.44 320.13,895.00
             311.66,880.38 297.01,868.54 291.60,852.00
             288.65,843.00 290.59,838.47 290.96,830.00
             290.96,830.00 290.00,813.00 290.00,813.00
             289.85,800.26 289.61,781.20 283.48,770.00
             278.61,761.10 264.94,751.31 257.00,743.91
             247.22,734.80 238.35,724.62 230.24,714.00
             230.24,714.00 221.63,702.01 221.63,702.01
             217.38,696.51 211.42,692.42 208.41,686.00
             208.41,686.00 202.35,670.00 202.35,670.00
             201.56,666.15 203.60,662.41 202.35,659.04
             200.86,654.78 195.87,653.55 193.42,647.00
             190.57,639.37 191.54,635.10 190.83,628.00
             190.83,628.00 188.20,615.00 188.20,615.00
             188.20,615.00 189.00,595.00 189.00,595.00
             188.98,579.31 184.72,575.60 177.63,563.00
             174.86,558.08 175.59,554.56 169.68,548.42
             164.13,542.67 151.02,533.12 147.35,527.00
             141.50,517.24 143.13,504.03 143.00,493.00
             142.93,487.00 140.96,476.42 138.48,471.00
             136.94,467.62 133.65,463.83 133.01,461.00
             133.01,461.00 134.40,445.00 134.40,445.00
             134.05,437.56 130.12,426.56 128.42,419.00
             128.42,419.00 126.40,404.00 126.40,404.00
             125.24,400.84 121.67,397.79 119.53,395.00
             119.53,395.00 112.25,383.00 112.25,383.00
             112.25,383.00 104.99,374.00 104.99,374.00
             101.25,367.97 101.70,360.12 97.86,354.63
             95.11,350.69 92.24,351.32 89.96,346.89
             89.96,346.89 83.03,329.00 83.03,329.00
             80.70,324.36 76.83,320.17 76.19,315.00
             75.30,307.84 80.37,296.53 78.35,290.00
             76.37,283.60 71.76,283.33 69.43,278.90
             69.43,278.90 67.07,272.00 67.07,272.00
             67.07,272.00 62.34,262.00 62.34,262.00
             62.34,262.00 59.54,254.00 59.54,254.00
             59.54,254.00 54.97,245.00 54.97,245.00
             54.97,245.00 49.69,233.00 49.69,233.00
             47.55,228.34 43.00,219.78 39.79,216.00
             35.77,211.27 30.86,208.02 28.56,202.00
             24.92,192.45 29.28,177.98 24.75,165.00
             22.28,157.91 17.20,155.56 14.36,149.00
             12.52,144.74 12.95,138.67 13.00,134.00
             13.09,127.04 14.80,121.39 13.70,114.00
             12.29,104.54 9.02,107.88 8.86,95.00
             8.86,95.00 8.86,82.00 8.86,82.00
             8.86,82.00 8.86,59.00 8.86,59.00
             8.99,51.80 7.81,39.06 6.40,32.00
             5.59,27.93 3.35,20.76 5.19,17.02
             9.79,7.63 16.03,12.20 23.00,11.30
             27.91,10.67 36.55,4.99 43.00,4.18
             57.21,2.41 69.69,9.44 83.00,9.96
             83.00,9.96 98.00,8.79 98.00,8.79
             102.74,9.20 111.23,13.01 116.00,14.77
             124.96,18.07 127.53,17.13 138.00,23.04
             148.23,28.82 154.00,36.33 167.00,35.49
             181.52,34.55 206.27,24.70 219.00,26.92
             238.64,30.36 252.37,37.19 268.00,49.42
             276.30,55.93 276.21,58.26 280.09,61.20
             286.27,65.89 293.00,64.95 301.00,71.12
             308.13,76.62 330.15,94.87 337.00,97.50
             343.02,99.81 357.66,95.61 365.00,96.30
             365.00,96.30 379.00,97.93 379.00,97.93
             379.00,97.93 394.00,102.90 394.00,102.90
             396.28,103.85 397.33,104.84 400.00,105.59
             400.00,105.59 426.00,111.07 426.00,111.07
             443.03,117.67 453.47,131.37 468.00,141.00
             477.32,147.17 480.00,146.70 490.00,150.00
             500.40,153.43 513.20,157.92 524.00,158.83
             529.55,159.29 538.22,157.22 543.00,154.39
             546.94,152.05 549.34,149.26 554.00,147.80
             563.18,144.92 572.65,146.89 582.00,147.00
             582.00,147.00 602.00,148.65 602.00,148.65
             602.00,148.65 612.00,153.47 612.00,153.47
             616.60,154.93 620.79,154.56 625.00,157.51
             625.00,157.51 665.28,199.57 665.28,199.57
             676.00,209.98 682.65,211.36 686.91,214.63
             691.39,218.08 695.84,226.00 705.00,229.24
             720.65,234.77 736.60,231.34 758.00,237.72
             758.00,237.72 807.00,255.91 807.00,255.91
             807.00,255.91 827.00,259.64 827.00,259.64
             827.00,259.64 838.00,264.89 838.00,264.89
             844.11,267.02 851.59,267.07 858.00,267.00
             858.00,267.00 870.17,266.42 870.17,266.42
             878.47,267.18 879.50,268.71 884.00,269.62
             890.44,270.93 894.66,270.30 901.00,274.13
             909.18,279.07 912.63,285.11 918.44,292.00
             918.44,292.00 930.61,304.58 930.61,304.58
             933.74,308.02 934.87,311.53 939.02,314.28
             945.40,318.50 952.07,315.52 957.96,319.09
             965.01,323.36 960.31,327.20 968.04,332.38
             968.04,332.38 984.00,341.42 984.00,341.42
             984.00,341.42 1012.96,358.92 1012.96,358.92
             1012.96,358.92 1033.00,374.02 1033.00,374.02
             1033.00,374.02 1042.00,378.17 1042.00,378.17
             1047.16,381.02 1051.40,384.14 1057.00,386.42
             1062.52,388.66 1064.58,387.44 1067.71,389.16
             1071.77,391.39 1079.73,400.79 1081.65,405.00
             1084.16,410.51 1083.21,415.51 1089.02,419.26
             1092.84,421.73 1099.49,420.95 1104.00,421.00
             1114.22,421.13 1114.31,424.37 1120.00,424.58
             1120.00,424.58 1127.00,424.58 1127.00,424.58
             1127.00,424.58 1138.00,425.29 1138.00,425.29
             1150.53,426.94 1163.17,432.10 1175.00,436.31
             1179.35,437.85 1190.53,441.41 1193.82,443.81
             1196.72,445.94 1199.50,450.94 1202.18,454.00
             1202.18,454.00 1210.00,462.00 1210.00,462.00
             1219.09,471.11 1230.73,481.65 1233.36,494.72
             1235.65,506.08 1225.45,512.42 1222.22,520.00
             1219.84,525.59 1221.07,533.77 1221.00,540.00
             1220.78,558.55 1208.67,556.09 1202.48,571.00
             1199.45,578.28 1200.48,582.06 1199.73,586.00
             1199.07,589.48 1197.20,591.35 1197.43,595.00
             1197.66,598.68 1200.24,602.23 1199.63,607.00
             1198.00,619.81 1180.19,626.62 1174.01,639.00
             1169.26,648.47 1175.03,652.22 1174.01,658.00
             1173.38,661.61 1169.99,665.64 1169.06,669.00
             1167.72,673.49 1170.38,674.90 1169.06,679.00
             1168.50,680.94 1165.08,685.96 1163.81,688.00
             1160.40,693.45 1150.05,707.56 1144.91,710.59
             1142.57,711.96 1133.02,715.07 1130.00,715.96
             1100.74,724.65 1069.70,725.07 1040.00,731.58
             1035.88,732.48 1030.79,733.01 1027.00,734.47
             1017.06,738.29 1004.45,750.67 1001.38,761.00
             999.94,765.86 1003.44,768.72 1007.00,771.47
             1013.58,776.57 1026.70,780.31 1035.00,779.68
             1038.10,779.44 1043.08,778.24 1046.00,778.54
             1055.28,779.50 1071.99,789.36 1075.93,798.00
             1079.24,805.27 1078.62,813.36 1078.00,821.00
             1087.36,812.40 1099.48,801.81 1112.00,798.61
             1128.95,794.27 1142.81,805.41 1141.48,823.00
             1140.90,830.73 1138.19,836.04 1133.38,842.00
             1131.63,844.17 1126.84,848.37 1127.68,851.28
             1128.34,853.57 1133.98,859.00 1135.83,860.96
             1143.75,869.35 1154.95,880.96 1166.00,884.64
             1184.22,890.71 1191.34,880.53 1206.00,873.25
             1218.91,866.83 1235.53,862.17 1250.00,862.00
             1262.96,861.85 1271.53,862.61 1284.00,866.75
             1294.82,870.34 1304.68,876.38 1314.00,882.81
             1337.99,899.37 1359.19,923.05 1366.10,952.00
             1367.85,959.33 1367.58,966.59 1368.09,974.00
             1368.09,974.00 1368.96,982.00 1368.96,982.00
             1368.96,982.00 1365.48,1019.00 1365.48,1019.00
             1363.37,1028.71 1354.85,1047.78 1350.25,1057.00
             1343.13,1071.24 1329.90,1092.39 1317.00,1101.70
             1310.73,1106.22 1305.30,1098.27 1301.00,1094.00
             1301.00,1094.00 1265.46,1058.75 1265.46,1058.75
             1265.46,1058.75 1227.00,1021.04 1227.00,1021.04
             1227.00,1021.04 1132.00,929.00 1132.00,929.00
             1132.00,929.00 1100.00,898.00 1100.00,898.00
             1097.05,895.05 1091.65,887.73 1087.00,889.88
             1084.49,891.05 1074.63,901.37 1072.00,904.00
             1072.00,904.00 1042.00,934.00 1042.00,934.00
             1042.00,934.00 966.00,1008.99 966.00,1008.99
             966.00,1008.99 943.00,1031.00 943.00,1031.00
             943.00,1031.00 910.09,1063.99 910.09,1063.99
             907.27,1066.95 900.43,1072.55 902.61,1077.00
             904.49,1080.83 916.34,1091.64 919.93,1095.17
             919.93,1095.17 937.00,1113.00 937.00,1113.00
             937.00,1113.00 951.85,1127.17 951.85,1127.17
             951.85,1127.17 1068.00,1244.00 1068.00,1244.00
             1068.00,1244.00 1107.00,1283.00 1107.00,1283.00
             1116.59,1292.59 1120.50,1294.68 1113.81,1301.42
             1088.74,1326.73 1056.38,1343.48 1021.00,1348.57
             1008.33,1350.40 995.75,1350.15 983.00,1350.00
             978.86,1349.95 961.59,1348.05 958.00,1346.91
             928.16,1337.40 903.27,1311.19 887.55,1285.00
             875.61,1265.09 873.89,1253.90 874.00,1231.00
             874.06,1219.28 879.47,1197.35 884.89,1187.00
             884.89,1187.00 898.61,1163.00 898.61,1163.00
             902.27,1146.67 885.98,1134.29 876.04,1124.00
             873.05,1120.92 866.68,1111.99 862.00,1113.39
             862.00,1113.39 846.00,1124.45 846.00,1124.45
             832.95,1132.54 813.75,1133.35 806.73,1117.00
             805.03,1113.06 804.91,1109.21 805.01,1105.00
             805.45,1087.25 823.71,1078.06 833.00,1065.00 Z
           M 147.00,101.00
           C 147.00,101.00 133.00,99.51 133.00,99.51
             121.84,98.80 112.91,102.56 105.59,111.01
             100.63,116.74 97.91,120.54 92.00,125.82
             89.23,128.29 85.77,129.93 85.66,134.04
             85.54,138.90 92.02,156.12 95.39,159.47
             98.48,162.54 111.50,168.57 116.00,170.40
             119.14,171.67 128.08,175.62 131.00,175.09
             136.28,174.13 150.40,161.96 153.20,156.96
             155.28,153.23 154.52,138.71 155.43,133.00
             155.82,130.55 155.59,119.12 154.76,117.00
             152.07,110.16 148.00,110.38 147.00,101.00 Z
           M 399.00,181.50
           C 388.30,184.22 390.85,181.48 382.00,182.09
             382.00,182.09 365.00,184.93 365.00,184.93
             365.00,184.93 358.00,184.93 358.00,184.93
             356.38,184.50 354.91,184.30 353.43,184.93
             351.19,186.59 346.13,197.35 346.38,200.00
             347.03,206.82 354.49,214.24 358.91,219.00
             360.62,220.84 363.16,224.07 365.09,225.41
             367.79,227.27 373.76,228.19 376.99,227.60
             376.99,227.60 381.58,226.25 381.58,226.25
             381.58,226.25 392.96,226.25 392.96,226.25
             397.89,226.69 398.14,230.97 402.09,232.38
             406.19,233.85 409.55,230.37 413.00,230.03
             415.85,229.51 417.32,230.97 421.00,230.03
             423.26,229.66 432.75,224.86 434.31,223.31
             435.57,222.04 437.14,218.70 438.02,217.00
             439.27,214.58 440.42,212.85 439.80,210.00
             439.52,208.72 434.26,198.24 433.35,197.06
             429.59,192.15 426.76,193.75 423.17,192.07
             423.17,192.07 417.91,188.64 417.91,188.64
             413.50,186.09 403.84,181.25 399.00,181.50 Z
           M 329.00,356.00
           C 329.79,350.65 335.36,343.86 339.04,340.00
             347.19,331.44 363.84,319.24 368.44,310.00
             371.67,303.53 367.77,298.13 365.90,292.00
             363.96,285.63 366.33,281.99 363.11,277.04
             356.98,267.60 349.17,270.51 341.00,266.10
             336.25,263.54 330.43,258.24 325.00,258.16
             320.28,258.09 317.93,261.36 314.00,263.32
             310.03,265.29 304.40,265.77 300.00,266.42
             295.93,267.02 291.52,267.23 288.05,269.70
             283.25,273.13 279.33,281.74 285.00,286.00
             282.07,298.03 287.71,302.40 291.68,313.00
             294.27,319.92 291.69,321.51 292.73,326.00
             293.43,328.98 296.52,333.18 298.13,336.00
             302.30,343.31 305.00,351.75 314.00,354.00
             315.39,358.86 325.14,356.94 329.00,356.00 Z
           M 682.00,354.00
           C 691.27,353.80 695.59,351.29 704.00,348.34
             710.55,346.05 716.85,344.40 721.53,338.96
             724.53,335.47 728.33,329.81 727.57,325.00
             727.05,321.75 724.88,319.25 724.21,315.00
             723.72,311.85 724.31,306.93 721.49,304.44
             718.89,302.56 716.54,304.90 713.00,304.44
             713.00,304.44 703.00,299.81 703.00,299.81
             699.14,298.73 697.71,299.91 693.00,298.53
             693.00,298.53 649.00,280.66 649.00,280.66
             649.00,280.66 636.00,275.95 636.00,275.95
             624.37,271.68 616.59,268.77 604.00,267.76
             602.27,267.80 599.59,267.32 598.00,267.76
             594.13,268.27 588.87,273.35 586.00,276.02
             583.13,278.70 576.58,283.92 575.02,287.00
             571.93,293.11 575.97,304.28 578.79,309.98
             582.11,316.72 587.05,315.85 593.72,322.30
             599.64,328.03 607.52,337.75 614.00,342.36
             618.68,345.70 622.59,346.10 627.00,348.40
             632.40,351.22 632.36,353.07 639.00,354.00
             640.29,358.15 646.49,356.72 650.00,357.37
             655.53,358.41 657.85,359.86 664.00,358.55
             664.00,358.55 670.00,357.13 670.00,357.13
             675.56,356.50 678.24,357.66 684.00,355.00
             684.00,355.00 682.00,354.00 682.00,354.00 Z
           M 534.00,354.00
           C 522.08,353.59 525.46,346.15 516.98,341.08
             513.52,339.01 503.40,337.08 491.00,329.38
             487.26,327.06 480.79,320.47 478.00,319.92
             474.50,319.24 467.66,323.67 461.00,323.95
             452.66,324.30 451.93,320.44 444.00,323.25
             436.56,325.88 425.36,333.57 424.30,342.00
             423.72,346.67 426.74,349.07 426.10,353.00
             425.44,357.09 419.64,363.76 420.73,367.96
             421.53,371.05 424.69,372.19 426.49,376.04
             426.49,376.04 428.53,382.00 428.53,382.00
             428.53,382.00 433.87,392.00 433.87,392.00
             434.58,394.90 433.45,396.93 433.87,398.98
             434.96,403.55 440.08,404.48 444.00,404.95
             457.35,406.55 450.55,407.80 468.00,408.00
             468.00,408.00 487.00,410.36 487.00,410.36
             490.67,410.56 493.24,408.98 497.00,408.87
             497.00,408.87 512.00,408.87 512.00,408.87
             515.00,409.00 518.16,409.18 520.96,407.91
             530.37,403.65 532.14,387.92 534.37,379.00
             535.68,373.79 540.48,362.24 536.18,357.74
             534.79,356.28 531.02,355.63 529.00,355.00
             529.00,355.00 534.00,354.00 534.00,354.00 Z
           M 849.00,361.16
           C 829.15,365.77 822.57,378.47 823.01,398.00
             823.34,412.45 825.68,432.05 843.00,435.09
             845.42,435.76 848.55,435.23 851.00,435.09
             862.18,433.20 871.70,426.61 882.00,422.45
             892.61,418.17 897.02,419.61 901.00,417.99
             905.82,416.04 910.02,410.63 914.00,407.21
             916.37,405.16 919.77,403.21 921.69,400.90
             927.22,394.21 921.16,382.12 918.66,375.00
             917.42,371.50 916.14,368.00 912.90,365.85
             909.74,363.77 905.63,364.01 902.00,363.81
             898.95,364.00 892.69,364.18 890.00,363.81
             884.64,362.48 885.94,361.11 878.00,361.16
             878.00,361.16 849.00,361.16 849.00,361.16 Z
           M 218.00,391.57
           C 214.52,391.75 210.29,392.00 207.00,393.10
             204.79,393.85 201.90,395.24 200.04,396.64
             198.35,397.90 197.04,399.27 195.85,401.02
             186.15,415.24 203.77,425.23 202.72,438.00
             201.91,446.84 197.91,451.86 202.72,460.90
             204.59,464.31 207.01,464.95 209.72,467.39
             209.72,467.39 215.04,472.61 215.04,472.61
             219.51,476.25 227.72,478.86 233.00,481.63
             233.00,481.63 244.00,488.42 244.00,488.42
             244.00,488.42 258.00,491.04 258.00,491.04
             258.00,491.04 277.00,496.16 277.00,496.16
             280.71,496.20 283.91,493.56 287.00,491.73
             299.86,484.12 300.96,484.11 305.67,470.00
             306.96,466.11 309.68,460.87 307.36,457.02
             300.86,446.20 275.76,444.96 265.00,438.03
             254.10,431.01 255.47,424.10 250.39,414.00
             246.03,405.34 236.59,395.20 227.00,392.61
             224.44,391.92 220.68,391.71 218.00,391.57 Z
           M 688.00,425.49
           C 683.32,426.69 669.81,434.40 666.53,437.55
             666.53,437.55 659.67,446.58 659.67,446.58
             656.18,450.25 651.42,453.58 650.63,459.00
             650.03,463.19 652.70,465.77 653.81,470.00
             653.81,470.00 653.81,488.00 653.81,488.00
             654.02,499.58 655.99,494.39 662.91,501.11
             662.91,501.11 671.21,511.59 671.21,511.59
             674.47,514.52 680.98,516.26 686.04,524.00
             692.62,534.07 690.26,542.81 691.43,546.99
             692.78,551.82 697.42,553.53 700.27,558.00
             702.79,561.96 702.32,567.02 704.16,569.57
             706.40,572.67 720.14,572.44 724.00,571.85
             735.26,570.14 732.15,557.69 733.44,554.72
             735.21,550.61 741.83,547.15 740.91,535.00
             740.53,530.03 738.65,527.25 737.85,523.00
             737.34,520.33 737.95,517.53 736.79,515.00
             735.27,511.69 732.04,509.72 730.58,506.00
             729.06,502.09 729.51,494.17 727.43,490.04
             725.25,485.72 722.18,485.52 720.44,481.90
             719.20,479.29 719.72,475.55 717.32,470.00
             715.49,465.78 710.43,459.01 709.84,455.00
             709.32,451.39 711.89,447.81 710.40,444.19
             708.94,440.64 704.89,440.28 702.09,438.28
             695.56,433.61 696.84,425.89 688.00,425.49 Z
           M 903.00,493.34
           C 894.19,495.69 890.10,502.01 884.90,509.00
             882.13,512.72 879.56,516.10 880.35,521.00
             881.84,530.14 891.78,533.13 897.96,538.38
             901.90,541.72 902.51,544.32 904.63,546.31
             907.21,548.72 912.25,549.43 912.59,555.00
             912.82,558.77 908.87,566.73 908.42,570.00
             907.61,575.82 911.92,577.33 911.21,583.00
             910.16,591.44 901.69,597.33 899.08,601.28
             897.10,604.29 896.36,609.48 891.70,616.00
             885.03,625.33 872.62,636.36 869.44,647.00
             868.58,649.88 867.91,652.98 868.20,656.00
             869.12,665.60 876.96,680.00 888.00,678.81
             891.30,678.46 908.23,671.88 911.00,670.16
             911.00,670.16 934.67,649.58 934.67,649.58
             934.67,649.58 940.38,642.11 940.38,642.11
             944.39,637.64 947.70,638.12 951.91,634.61
             955.60,631.53 965.66,617.44 967.73,613.00
             968.81,610.68 970.13,593.99 969.90,591.00
             969.42,584.55 966.31,583.52 965.31,579.00
             964.29,574.38 966.78,570.05 966.50,566.00
             966.08,559.79 958.64,546.40 955.23,541.00
             955.23,541.00 946.40,523.01 946.40,523.01
             942.24,516.97 939.20,516.50 936.27,513.63
             936.27,513.63 931.20,507.10 931.20,507.10
             929.01,505.02 923.77,502.41 921.00,500.68
             913.04,495.71 913.55,492.15 903.00,493.34 Z
           M 1079.91,530.19
           C 1072.87,531.28 1063.50,533.27 1058.99,539.32
             1052.61,547.88 1055.53,558.07 1052.46,567.00
             1046.35,584.74 1032.23,605.37 1032.00,625.00
             1031.82,640.63 1033.11,634.44 1035.42,641.04
             1035.42,641.04 1036.99,649.00 1036.99,649.00
             1038.73,653.51 1042.62,656.73 1046.00,660.01
             1050.82,664.69 1054.90,667.87 1062.00,667.53
             1073.06,667.00 1081.05,655.83 1089.00,649.68
             1100.91,640.46 1105.03,644.31 1112.79,635.91
             1120.97,627.04 1120.24,611.91 1123.91,601.00
             1126.58,593.06 1132.00,589.67 1131.93,585.00
             1131.89,582.12 1127.66,572.26 1126.42,569.00
             1124.59,564.19 1121.61,554.94 1118.89,551.09
             1115.59,546.40 1109.42,542.21 1105.00,538.54
             1099.23,533.73 1098.91,530.25 1091.00,530.19
             1091.00,530.19 1079.91,530.19 1079.91,530.19 Z
           M 380.00,540.42
           C 369.25,542.73 369.64,552.79 369.99,562.00
             370.14,564.40 371.16,568.59 369.99,570.57
             368.38,573.10 365.46,572.30 363.57,575.29
             362.45,577.04 361.19,582.73 360.63,585.00
             358.33,594.25 356.76,613.75 365.19,620.30
             371.89,625.51 385.20,624.83 395.00,628.55
             404.77,632.27 409.04,637.84 422.00,638.00
             435.47,638.16 431.57,637.90 443.00,633.09
             447.71,631.10 451.70,630.09 454.01,624.96
             457.00,618.34 455.01,613.61 454.99,607.00
             455.01,603.54 456.36,597.83 454.99,595.09
             453.84,592.89 449.06,589.05 447.04,586.99
             447.04,586.99 436.83,575.09 436.83,575.09
             436.83,575.09 429.31,568.68 429.31,568.68
             425.86,564.84 427.77,561.52 422.61,555.00
             420.38,552.19 408.08,541.76 405.00,540.83
             401.91,539.90 399.43,541.55 396.00,541.73
             396.00,541.73 380.00,540.42 380.00,540.42 Z
           M 528.00,638.82
           C 522.61,640.16 518.23,644.76 514.00,648.25
             508.89,652.47 501.23,658.24 498.07,664.00
             492.67,673.85 496.27,685.57 497.02,696.00
             498.14,705.55 494.98,708.52 497.02,715.00
             499.04,723.07 507.40,731.53 512.71,738.00
             512.71,738.00 525.38,756.38 525.38,756.38
             531.71,762.77 539.31,762.80 547.00,765.93
             552.68,768.24 554.17,770.94 561.00,771.48
             564.72,771.78 569.39,770.57 573.00,769.58
             576.03,768.74 581.36,767.34 584.00,766.00
             592.54,761.69 600.24,750.95 597.57,741.00
             596.63,737.50 593.43,734.19 591.47,731.00
             591.47,731.00 581.10,713.00 581.10,713.00
             581.10,713.00 573.01,703.72 573.01,703.72
             570.98,700.30 572.43,696.78 567.98,689.00
             563.55,681.23 556.53,673.32 557.18,664.00
             557.53,659.02 558.85,655.91 555.91,651.04
             552.30,645.05 544.15,643.94 538.00,641.97
             534.34,640.80 531.86,639.35 528.00,638.82 Z
           M 344.00,719.38
           C 344.00,719.38 333.00,721.98 333.00,721.98
             327.51,724.52 324.39,729.58 320.54,733.83
             318.46,736.13 315.72,738.02 314.50,741.01
             313.09,745.03 314.67,751.72 314.50,756.00
             314.06,761.12 311.53,764.61 312.62,767.72
             312.62,767.72 325.87,783.96 325.87,783.96
             333.07,792.09 342.78,804.69 355.00,802.32
             358.67,801.61 364.96,798.85 366.98,795.63
             368.94,792.49 366.58,790.80 371.75,783.00
             373.89,779.77 378.89,774.07 378.28,770.04
             377.67,766.06 373.26,764.95 371.87,762.61
             370.28,760.26 371.83,755.94 371.87,753.00
             372.32,744.57 366.86,727.74 359.82,722.85
             356.12,720.28 348.42,718.91 344.00,719.38 Z
           M 740.00,719.42
           C 729.93,721.79 720.39,728.95 719.64,740.00
             719.12,747.53 729.21,759.71 736.00,762.47
             738.09,763.05 740.82,763.05 743.00,762.47
             750.59,761.34 765.66,747.00 765.46,739.00
             765.27,731.41 751.71,721.26 745.00,719.42
             742.96,718.96 742.00,719.17 740.00,719.42 Z
           M 917.99,751.64
           C 914.13,751.94 912.45,752.53 909.00,754.32
             906.45,755.64 902.52,757.82 900.93,760.21
             896.47,766.93 901.31,783.01 905.79,788.96
             909.48,793.86 911.43,792.89 916.25,800.00
             918.89,803.90 919.89,806.73 921.60,811.00
             922.84,814.10 925.41,821.52 926.99,823.83
             929.14,826.97 931.95,828.35 934.79,833.00
             936.13,835.19 937.71,840.61 940.27,841.13
             941.58,841.39 942.91,840.75 943.99,840.09
             951.01,835.84 949.27,829.98 952.83,824.00
             959.25,813.21 972.73,807.41 978.35,799.91
             982.46,794.43 983.07,787.57 983.00,781.00
             982.95,777.02 981.81,768.46 978.35,765.99
             978.35,765.99 964.00,762.98 964.00,762.98
             956.31,760.59 946.73,756.19 939.00,754.98
             933.11,754.05 928.96,756.26 926.61,755.78
             923.54,755.16 923.60,752.74 917.99,751.64 Z
           M 854.90,752.64
           C 854.90,752.64 838.00,757.33 838.00,757.33
             833.00,758.39 829.66,757.31 825.00,760.15
             819.00,763.80 812.93,772.06 807.00,776.39
             799.84,781.61 798.48,778.16 792.18,785.02
             785.53,792.26 785.68,795.29 782.02,803.00
             780.77,805.63 778.26,808.95 778.72,811.96
             779.39,816.35 785.70,818.35 788.98,820.79
             793.93,824.47 793.88,827.17 796.41,828.83
             799.38,830.77 812.82,831.22 817.00,831.49
             824.00,831.93 837.05,829.25 840.83,822.71
             842.46,819.87 841.57,817.23 842.79,813.00
             843.81,809.45 846.43,805.13 848.44,802.00
             854.36,792.80 862.62,785.99 863.67,774.00
             864.20,768.02 861.04,754.60 854.90,752.64 Z
           M 1019.00,821.33
           C 1006.65,824.00 1003.68,829.32 995.00,838.00
             995.00,838.00 965.00,868.00 965.00,868.00
             965.00,868.00 882.91,949.84 882.91,949.84
             882.91,949.84 840.21,992.00 840.21,992.00
             837.07,995.73 833.12,1004.00 833.70,1009.00
             834.48,1015.60 844.26,1024.17 852.00,1023.47
             858.37,1022.88 863.64,1017.26 868.00,1012.99
             868.00,1012.99 893.00,988.09 893.00,988.09
             893.00,988.09 947.00,936.00 947.00,936.00
             947.00,936.00 998.71,884.44 998.71,884.44
             998.71,884.44 1028.00,855.72 1028.00,855.72
             1032.44,851.20 1038.24,845.87 1037.52,839.00
             1036.47,828.91 1029.76,820.39 1019.00,821.33 Z
           M 754.00,840.57
           C 745.61,841.00 735.88,842.92 737.23,854.00
             737.77,858.44 740.59,860.89 740.18,865.00
             739.76,869.22 737.19,870.74 738.09,882.00
             738.52,887.36 742.56,897.96 746.26,901.79
             750.11,905.77 759.42,909.60 765.00,909.74
             773.76,909.96 772.86,905.10 775.82,899.00
             782.25,885.77 784.81,889.53 785.00,873.00
             785.00,873.00 785.78,862.00 785.78,862.00
             785.28,855.90 777.41,844.25 771.83,842.01
             769.01,840.87 757.83,840.76 754.00,840.57 Z
           M 868.00,848.42
           C 857.34,852.16 860.06,856.53 858.35,862.00
             857.05,866.16 854.01,868.37 853.20,872.00
             852.79,875.61 855.04,876.92 853.20,887.00
             852.18,891.03 849.13,900.71 849.39,904.00
             849.87,909.87 856.52,913.65 862.00,912.66
             865.48,912.03 869.31,908.57 871.91,906.25
             879.08,899.84 885.15,892.38 891.25,885.00
             893.94,881.75 898.41,877.31 898.81,873.00
             899.36,867.14 892.00,856.74 887.00,854.17
             887.00,854.17 880.09,852.00 880.09,852.00
             875.50,849.68 876.54,847.20 868.00,848.42 Z
           M 623.00,871.53
           C 619.67,872.07 610.89,874.64 608.25,876.41
             606.00,877.92 605.31,879.85 603.59,881.85
             601.72,884.02 599.51,885.54 597.89,888.04
             596.23,890.61 593.95,900.86 594.11,904.00
             594.43,910.32 598.15,915.29 599.39,920.00
             601.12,926.56 598.08,931.90 602.94,937.79
             608.38,944.37 619.21,943.99 627.00,945.46
             629.85,946.00 634.28,947.52 637.00,947.05
             647.47,945.25 646.69,928.84 647.04,921.00
             647.43,912.02 650.64,908.41 650.64,905.00
             650.65,900.99 647.39,898.88 646.19,895.00
             645.23,891.09 647.22,888.46 646.19,885.00
             644.91,881.59 634.15,872.99 630.96,871.53
             628.43,870.74 625.63,871.04 623.00,871.53 Z
           M 787.00,911.54
           C 782.80,912.43 780.48,913.48 777.00,916.05
             772.40,919.46 765.85,926.01 765.25,932.00
             764.83,936.22 767.48,940.31 769.22,944.00
             769.22,944.00 776.42,962.00 776.42,962.00
             779.80,970.95 784.11,986.72 796.00,985.78
             804.68,985.09 811.17,977.61 817.00,972.04
             817.00,972.04 835.00,956.90 835.00,956.90
             837.64,952.94 838.23,945.73 839.02,941.00
             840.10,934.51 843.70,931.69 841.10,927.02
             839.07,923.35 832.83,919.56 829.00,917.95
             824.29,915.98 812.45,914.50 807.00,913.85
             807.00,913.85 787.00,911.54 787.00,911.54 Z
           M 1256.00,937.33
           C 1252.28,937.88 1247.32,938.69 1244.00,940.44
             1233.35,946.03 1231.45,957.54 1235.47,968.00
             1240.86,982.04 1258.21,999.60 1274.00,999.99
             1277.01,1000.06 1280.08,1000.04 1283.00,999.21
             1300.57,994.21 1299.20,977.79 1294.24,964.00
             1289.86,951.83 1269.04,937.14 1256.00,937.33 Z
           M 1093.00,939.08
           C 1098.42,938.81 1101.38,943.38 1105.00,947.00
             1105.00,947.00 1128.00,970.00 1128.00,970.00
             1128.00,970.00 1149.00,990.01 1149.00,990.01
             1149.00,990.01 1222.00,1063.00 1222.00,1063.00
             1222.00,1063.00 1295.84,1136.17 1295.84,1136.17
             1295.84,1136.17 1338.29,1178.92 1338.29,1178.92
             1338.29,1178.92 1405.00,1244.00 1405.00,1244.00
             1405.00,1244.00 1449.00,1288.00 1449.00,1288.00
             1452.09,1291.09 1463.47,1300.81 1462.95,1304.96
             1462.67,1307.21 1459.26,1310.42 1457.71,1312.09
             1457.71,1312.09 1443.00,1327.00 1443.00,1327.00
             1443.00,1327.00 1385.00,1384.00 1385.00,1384.00
             1385.00,1384.00 1341.00,1427.04 1341.00,1427.04
             1341.00,1427.04 1329.00,1438.99 1329.00,1438.99
             1327.53,1440.43 1325.03,1443.09 1323.00,1443.55
             1319.32,1444.38 1314.38,1438.38 1312.00,1436.00
             1312.00,1436.00 1285.00,1409.00 1285.00,1409.00
             1285.00,1409.00 1262.00,1387.00 1262.00,1387.00
             1262.00,1387.00 1214.00,1339.00 1214.00,1339.00
             1214.00,1339.00 1196.00,1321.54 1196.00,1321.54
             1196.00,1321.54 1173.07,1298.17 1173.07,1298.17
             1173.07,1298.17 1158.00,1283.99 1158.00,1283.99
             1158.00,1283.99 1101.00,1227.00 1101.00,1227.00
             1101.00,1227.00 1077.00,1203.99 1077.00,1203.99
             1077.00,1203.99 1011.00,1138.00 1011.00,1138.00
             1011.00,1138.00 967.56,1094.83 967.56,1094.83
             964.90,1092.00 953.77,1081.76 953.25,1078.99
             952.58,1075.42 957.71,1071.30 960.00,1069.00
             960.00,1069.00 985.00,1044.00 985.00,1044.00
             985.00,1044.00 1057.00,973.00 1057.00,973.00
             1057.00,973.00 1078.00,952.00 1078.00,952.00
             1082.64,947.36 1087.08,942.06 1093.00,939.08 Z
           M 490.00,1025.00
           C 500.99,1027.86 500.02,1034.71 504.41,1043.00
             505.58,1045.21 507.68,1047.67 508.25,1050.00
             508.92,1052.74 506.87,1057.15 511.07,1068.00
             513.80,1075.07 520.72,1082.56 526.01,1088.00
             529.84,1091.93 533.33,1096.64 539.00,1097.67
             549.10,1099.52 558.70,1094.74 568.00,1094.21
             573.32,1093.91 576.11,1096.36 580.78,1091.77
             585.72,1086.92 587.45,1075.57 589.44,1069.00
             592.22,1059.81 597.02,1056.10 591.21,1046.00
             587.07,1038.80 578.35,1032.79 571.00,1029.12
             571.00,1029.12 562.04,1024.93 562.04,1024.93
             557.90,1022.30 557.74,1019.57 555.53,1018.26
             553.39,1016.98 550.89,1018.09 548.22,1016.22
             544.41,1013.56 544.36,1007.86 542.43,1004.01
             540.38,999.91 537.81,999.02 535.93,995.91
             533.83,992.43 533.84,984.50 533.08,980.00
             531.16,968.60 525.82,950.60 515.91,943.72
             513.12,941.79 509.33,941.18 506.00,941.04
             489.80,940.33 480.88,951.19 477.77,966.00
             474.57,980.26 477.06,977.71 477.77,985.00
             478.26,988.46 477.48,991.68 478.98,995.00
             478.98,995.00 482.90,1001.00 482.90,1001.00
             488.69,1009.94 490.76,1014.49 490.00,1025.00 Z
           M 1010.00,1264.00
           C 1014.96,1260.68 1012.78,1252.98 1011.56,1248.00
             1008.64,1236.07 999.85,1229.26 990.00,1222.95
             986.83,1220.92 983.67,1218.54 980.00,1217.55
             976.74,1216.67 973.33,1216.75 970.00,1216.96
             954.41,1217.95 946.99,1229.15 950.50,1244.00
             954.27,1259.93 966.63,1273.04 982.00,1278.45
             989.75,1281.18 999.18,1280.67 1005.96,1275.78
             1010.20,1272.72 1013.33,1268.88 1010.00,1264.00 Z" />
</svg>
