<?xml version="1.0" encoding="utf-8"?>
<!-- Svg Vector Icons : http://www.onlinewebfonts.com/icon -->
<!DOCTYPE svg PUBLIC "-//W3C//DTD SVG 1.1//EN" "http://www.w3.org/Graphics/SVG/1.1/DTD/svg11.dtd">
<svg version="1.1" xmlns="http://www.w3.org/2000/svg" xmlns:xlink="http://www.w3.org/1999/xlink" x="0px" y="0px" viewBox="0 0 1000 1000" enable-background="new 0 0 1000 1000" xml:space="preserve">
<metadata> Svg Vector Icons : http://www.onlinewebfonts.com/icon </metadata>
<g><g transform="translate(0.000000,512.000000) scale(0.100000,-0.100000)"><path d="M4526.5,5008.3c-958.2-97.7-1883.9-479.1-2627.4-1082.8c-230-185.9-634.4-603.7-808.7-837.5C571,2400,250.9,1614.3,124.4,727c-32.6-226.1-32.6-981.2,0-1207.3c82.4-576.8,228.1-1054,471.5-1552.3c268.3-546.2,561.5-946.7,1011.9-1379.8c1307-1261,3192.8-1692.2,4921.4-1121.1c739.7,243.4,1383.7,640.1,1933.7,1190.1c1151.8,1149.9,1650,2767.3,1353,4379.1C9570.5,2356,8767.5,3542.2,7619.6,4272.4c-235.7,151.4-659.3,362.2-925.7,459.9c-247.2,92-711,207-988.9,249.1C5446.4,5019.8,4781.4,5035.1,4526.5,5008.3z M5666.8,4674.8c492.5-74.7,912.2-205.1,1351.1-419.7c1960.5-958.2,2968.6-3143,2432-5272.1c-523.2-2083.2-2464.5-3537.7-4607.1-3451.5c-904.6,34.5-1719,302.8-2447.3,801.1C1094.2-2774.3,339.1-1271.8,404.2,295.8c86.2,2115.8,1563.8,3875,3624,4321.6c182.1,38.3,331.5,61.3,622.8,93.9C4800.5,4728.5,5477.1,4703.6,5666.8,4674.8z"/><path d="M4526.5,3162.8C3301.9,2961.6,2328.3,2074.2,2023.6,886.1c-266.4-1046.4,40.2-2144.5,814.5-2920.6c1034.9-1033,2606.4-1203.5,3825.2-415.9c919.9,596,1439.2,1621.3,1393.3,2746.2c-30.7,695.7-272.1,1307-730.2,1843.6c-327.7,383.3-845.1,732.1-1333.8,896.9c-320,107.3-505.9,138-919.9,145.7C4806.3,3185.8,4630,3180,4526.5,3162.8z M5091.8,2147.1v-199.3l120.7-13.4c592.2-69,1151.8-467.6,1425.8-1015.7c93.9-185.9,164.8-440.8,182.1-651.6l5.8-57.5l207-5.7l205.1-5.7v-84.3V27.5h-199.3h-199.3l-13.4-109.2c-49.8-425.4-237.7-806.8-540.4-1100c-297-291.3-659.2-465.7-1048.3-505.9l-126.5-13.4v-189.7v-189.7h-86.2h-86.2v187.8v189.7l-164.8,23c-299,42.2-597.9,157.1-826,320c-239.6,168.6-482.9,463.8-603.7,730.1c-70.9,157.2-149.5,458-149.5,573v84.3h-201.2h-201.2v86.2v84.3l197.4,5.7l195.5,5.7l13.4,124.6c21.1,195.5,69,358.4,170.6,567.3c266.4,559.6,776.2,927.5,1412.4,1025.3l157.1,23V2149v197.4h76.7h76.7V2147.1z"/><path d="M4649.1,1733.1c-176.3-36.4-433.1-147.6-586.4-251c-381.4-260.6-634.3-682.3-688-1151.8l-13.4-111.1h214.6h212.7v-86.2V46.7h-210.8c-243.4,0-230,17.3-180.1-226.1c92-446.5,350.7-829.8,722.5-1073.2c226.2-147.6,532.8-253,735.9-253h63.2v210.8v210.8h86.2h86.2v-210.8v-210.8h72.8c184,0,534.7,128.4,758.9,277.9c222.3,147.6,467.6,440.8,576.8,689.9c57.5,128.4,116.9,343,134.2,484.9l13.4,99.7h-203.2h-203.1v86.2v86.2h191.6c147.6,0,195.5,5.7,203.1,26.8c13.4,36.4-24.9,245.3-72.8,394.8c-180.1,561.5-651.6,977.4-1245.7,1100c-241.5,49.8-226.1,61.3-226.1-161v-191.6h-86.2h-86.2v191.6v191.6l-51.7-1.9C4836.9,1769.5,4739.2,1752.3,4649.1,1733.1z M5178.1,589c325.8-109.2,421.6-553.8,172.5-801.1c-247.2-249.1-691.8-153.3-801.1,172.5C4411.5,364.8,4773.7,727,5178.1,589z"/><path d="M4846.5,391.6c-90.1-55.6-138-145.6-138-258.7c0-178.2,118.8-297,299-297c302.8,0,423.5,417.8,161,557.7C5078.4,441.5,4928.9,441.5,4846.5,391.6z"/></g></g>
</svg>