<?xml version="1.0" standalone="no"?>
<!DOCTYPE svg PUBLIC "-//W3C//DTD SVG 20010904//EN"
 "http://www.w3.org/TR/2001/REC-SVG-20010904/DTD/svg10.dtd">
<svg version="1.0" xmlns="http://www.w3.org/2000/svg"
 width="213.000000pt" height="21.000000pt" viewBox="0 0 1000 1000"
 preserveAspectRatio="xMidYMid meet">

<g transform="translate(0.000000,21.000000) scale(0.100000,-0.100000)"
fill="#000000" stroke="none">
<path d="M280 100 l0 -50 45 0 45 0 0 50 0 50 -45 0 -45 0 0 -50z m80 0 c0
-39 -1 -40 -35 -40 -34 0 -35 1 -35 40 0 39 1 40 35 40 34 0 35 -1 35 -40z"/>
<path d="M30 100 c0 -6 45 -10 115 -10 70 0 115 4 115 10 0 6 -45 10 -115 10
-70 0 -115 -4 -115 -10z"/>
</g>
</svg>
