<?xml version="1.0" encoding="UTF-8" standalone="no"?>
<!-- Created with Inkscape (http://www.inkscape.org/) -->

<svg
   xmlns:dc="http://purl.org/dc/elements/1.1/"
   xmlns:cc="http://creativecommons.org/ns#"
   xmlns:rdf="http://www.w3.org/1999/02/22-rdf-syntax-ns#"
   xmlns:svg="http://www.w3.org/2000/svg"
   xmlns="http://www.w3.org/2000/svg"
   xmlns:sodipodi="http://sodipodi.sourceforge.net/DTD/sodipodi-0.dtd"
   xmlns:inkscape="http://www.inkscape.org/namespaces/inkscape"
   width="225.77779mm"
   height="156.32938mm"
   viewBox="0 0 800.00003 553.92296"
   id="svg2"
   version="1.1"
   inkscape:version="0.91 r13725"
   sodipodi:docname="SailingShip13.svg">
  <defs
     id="defs4" />
  <sodipodi:namedview
     id="base"
     pagecolor="#ffffff"
     bordercolor="#666666"
     borderopacity="1.0"
     inkscape:pageopacity="0"
     inkscape:pageshadow="2"
     inkscape:zoom="1.2095544"
     inkscape:cx="400.00002"
     inkscape:cy="276.96149"
     inkscape:document-units="px"
     inkscape:current-layer="layer1"
     showgrid="false"
     fit-margin-top="0"
     fit-margin-left="0"
     fit-margin-right="0"
     fit-margin-bottom="0"
     inkscape:window-width="1600"
     inkscape:window-height="837"
     inkscape:window-x="-8"
     inkscape:window-y="-8"
     inkscape:window-maximized="1" />
  <metadata
     id="metadata7">
    <rdf:RDF>
      <cc:Work
         rdf:about="">
        <dc:format>image/svg+xml</dc:format>
        <dc:type
           rdf:resource="http://purl.org/dc/dcmitype/StillImage" />
        <dc:title></dc:title>
      </cc:Work>
    </rdf:RDF>
  </metadata>
  <g
     inkscape:label="Layer 1"
     inkscape:groupmode="layer"
     id="layer1"
     transform="translate(426.45821,106.16514)">
    <g
       id="g4306">
      <path
         inkscape:connector-curvature="0"
         id="path2310"
         style="color:#000000;display:inline;overflow:visible;visibility:visible;fill:#000000;fill-opacity:1;fill-rule:evenodd;stroke:#000000;stroke-width:1.38626432px;stroke-linecap:butt;stroke-linejoin:miter;stroke-miterlimit:4;stroke-dasharray:none;stroke-dashoffset:0;stroke-opacity:1;marker:none;marker-start:none;marker-mid:none;marker-end:none;enable-background:accumulate"
         d="m 310.95695,-9.0735071 c 0,0 -70.71709,89.6216541 -84.72044,154.0372271 -14.00348,64.41557 4.00229,100.86171 30.60872,144.27229 0,0 -48.11155,-38.1005 -74.01931,-37.84654 -72.12151,0.70021 -201.648635,83.32017 -201.648635,83.32017 0,0 86.120699,-65.11574 329.779665,-343.7831471 z" />
      <path
         inkscape:connector-curvature="0"
         id="path2312"
         style="color:#000000;display:inline;overflow:visible;visibility:visible;fill:#000000;fill-opacity:1;fill-rule:evenodd;stroke:#000000;stroke-width:1.38626432px;stroke-linecap:butt;stroke-linejoin:miter;stroke-miterlimit:4;stroke-dasharray:none;stroke-dashoffset:0;stroke-opacity:1;marker:none;marker-start:none;marker-mid:none;marker-end:none;enable-background:accumulate"
         d="m 193.32854,20.333595 c 0,0 -102.924857,93.122515 -98.723922,170.841225 4.201074,77.71887 56.299242,111.22918 56.299242,111.22918 0,0 -80.805206,-61.517 -134.718134,-60.81694 -53.913066,0.7002 -80.145484,23.77319 -61.614873,87.90482 0,0 -53.913067,-71.80086 -53.913067,-134.81618 0,-63.0152 79.119095,-114.827713 79.119095,-114.827713 0,0 75.618222,-6.301528 213.551659,-59.514392 z" />
      <path
         inkscape:connector-curvature="0"
         id="path2332"
         style="color:#000000;display:inline;overflow:visible;visibility:visible;fill:#000000;fill-opacity:1;fill-rule:evenodd;stroke:#000000;stroke-width:1.38626432px;stroke-linecap:butt;stroke-linejoin:miter;stroke-miterlimit:4;stroke-dasharray:none;stroke-dashoffset:0;stroke-opacity:1;marker:none;marker-start:none;marker-mid:none;marker-end:none;enable-background:accumulate"
         d="m -5.5195685,78.447638 c 0,0 -16.1038165,-26.606432 4.201074,-39.209474 C 18.986396,26.635123 71.84909,18.233099 161.12063,38.53799 c 0,0 -60.21447,-15.053624 -60.21447,-44.4607401 0,-29.4071019 30.45734,-55.6634469 63.71534,-81.9197919 0,0 -147.652257,39.919699 -162.5051088,40.90988 -14.8528512,0.990194 -62.3818932,30.695856 -61.3916852,60.896622 0.990209,30.200752 27.725286,50.994716 53.7557255,64.483678 z" />
      <path
         inkscape:connector-curvature="0"
         id="path2338"
         style="color:#000000;display:inline;overflow:visible;visibility:visible;fill:#000000;fill-opacity:1;fill-rule:evenodd;stroke:#000000;stroke-width:1.38626432px;stroke-linecap:butt;stroke-linejoin:miter;stroke-miterlimit:4;stroke-dasharray:none;stroke-dashoffset:0;stroke-opacity:1;marker:none;marker-start:none;marker-mid:none;marker-end:none;enable-background:accumulate"
         d="m -85.515198,-2.3741492 c 0,0 -35.646812,27.2301822 -34.161572,54.4603772 1.48524,27.230182 37.13206,56.935842 37.13206,56.935842 0,0 -65.35252,-27.23018 -94.56305,-27.23018 -29.21053,0 -55.94561,13.367538 -46.0438,47.03397 0,0 -38.12227,-16.33813 -38.12227,-49.014346 0,-32.676232 46.0438,-55.945676 46.0438,-55.945676 0,0 34.65661,-5.446037 129.714832,-26.2399872 z" />
      <path
         inkscape:connector-curvature="0"
         id="path2340"
         style="color:#000000;display:inline;overflow:visible;visibility:visible;fill:#000000;fill-opacity:1;fill-rule:evenodd;stroke:#000000;stroke-width:1.38626432px;stroke-linecap:butt;stroke-linejoin:miter;stroke-miterlimit:4;stroke-dasharray:none;stroke-dashoffset:0;stroke-opacity:1;marker:none;marker-start:none;marker-mid:none;marker-end:none;enable-background:accumulate"
         d="m -81.554502,106.54661 c 0,0 -57.430988,44.55849 -55.450568,93.57281 1.98041,49.01446 27.72528,78.72003 67.827968,130.70494 0,0 -74.759298,-74.75915 -110.406108,-80.20523 -32.30509,-4.93552 -53.47016,2.97048 -32.18116,53.96533 0,0 -59.90644,-39.60765 -59.90644,-96.54347 0,-56.93589 49.01443,-78.72004 49.01443,-78.72004 0,0 20.79396,9.4068 141.101878,-22.77434 z" />
      <path
         inkscape:connector-curvature="0"
         id="path2342"
         style="color:#000000;display:inline;overflow:visible;visibility:visible;fill:#000000;fill-opacity:1;fill-rule:evenodd;stroke:#000000;stroke-width:1.38626432px;stroke-linecap:butt;stroke-linejoin:miter;stroke-miterlimit:4;stroke-dasharray:none;stroke-dashoffset:0;stroke-opacity:1;marker:none;marker-start:none;marker-mid:none;marker-end:none;enable-background:accumulate"
         d="m -426.01858,164.06882 165.22537,135.55073 c 0,0 32.18116,53.95909 58.91623,82.17941 26.73494,28.22046 47.34024,65.02841 47.34024,65.02841 0,0 239.828019,0.83966 285.87168,-0.64558 46.0438,-1.48524 58.92746,-76.25272 58.92746,-76.25272 14.35796,-11.88222 17.29739,-8.91174 40.07177,-10.39698 22.77438,-1.48524 33.19618,-34.66894 42.10778,-47.04634 8.91174,-12.37726 30.70825,-14.35768 43.58068,-17.32831 12.87244,-2.97048 9.40054,-17.8049 9.40054,-17.80476 -43.07317,9.90181 -164.86024,20.31737 -175.75225,20.31737 -10.89202,0 -13.39242,15.32931 -17.84816,24.73622 -4.45586,9.40677 -18.78887,6.93132 -23.73977,6.93132 -4.95091,0 -110.9259594,0 -170.337227,0 -59.411403,0 -189.138433,-35.65305 -189.138433,-35.65305 L -426.01858,164.06882 Z m 184.67632,148.41693 c 0.42295,-0.0194 0.84646,0.0236 1.25637,0.13031 0,0 54.27891,13.03906 119.5653,26.07909 65.286257,13.04004 141.794877,26.03571 185.022895,26.03571 25.744869,0 36.884475,0 41.587925,0 1.84997,0 2.20028,0 2.556,0 0.28765,-0.043 13.62337,-2.09673 23.82628,-8.75079 5.20209,-3.39261 16.7031,-12.55027 28.15849,-20.75058 5.72777,-4.10015 11.47924,-7.97545 16.72181,-10.91683 5.24272,-2.94138 9.70898,-5.15524 14.3825,-5.15524 11.64753,0 39.46528,-0.99631 39.46528,-0.99631 -2.7796,4.89241 -18.51398,6.73655 -39.46528,9.44393 -1.26747,0 -5.45606,1.39735 -10.2237,4.07215 -4.7675,2.6748 -10.3877,6.43324 -15.98529,10.44023 -11.1952,8.01414 -22.23319,16.9335 -28.41842,20.96725 -12.46127,8.12697 -27.46536,10.05042 -27.46536,10.05042 l -0.25993,0.043 c 0,0 -0.0236,0 -0.043,0 -0.0139,0 -0.27781,0 -0.30332,0 -0.24772,0 -0.8136,0 -2.94581,0 -4.70346,0 -15.843059,0 -41.587928,0 -44.898744,0 -121.203999,-13.13319 -186.669082,-26.20913 -18.66023,-3.83953 -35.54548,-7.45588 -119.17548,-34.48332 z m 44.05729,46.17993 c 0.42281,-0.0194 0.84631,0.0236 1.25623,0.1303 0,0 46.87153,11.25203 105.875934,23.30657 1.547487,0.23068 2.857229,1.29741 3.379019,2.77253 2.207765,17.88129 -104.826113,-19.80528 -110.511183,-26.20913 z" />
      <path
         inkscape:connector-curvature="0"
         id="path2346"
         style="color:#000000;display:inline;overflow:visible;visibility:visible;fill:#000000;fill-opacity:1;fill-rule:evenodd;stroke:#000000;stroke-width:1.38626432px;stroke-linecap:butt;stroke-linejoin:miter;stroke-miterlimit:4;stroke-dasharray:none;stroke-dashoffset:0;stroke-opacity:1;marker:none;marker-start:none;marker-mid:none;marker-end:none;enable-background:accumulate"
         d="m -304.84203,257.64943 c 0,0 -14.85285,-47.03401 18.31837,-70.30343 0,0 -111.89121,-11.88225 -112.88142,67.33294 -0.99021,79.21502 73.76908,75.44217 83.17586,75.44217 9.40677,0 43.74662,-5.44594 67.51121,-19.80376 0,0 -96.72188,23.57661 -95.2365,-20.9818 0,0 0,-31.19095 39.11248,-31.68612 z" />
      <path
         inkscape:connector-curvature="0"
         id="path2348"
         style="color:#000000;display:inline;overflow:visible;visibility:visible;fill:none;fill-opacity:1;fill-rule:evenodd;stroke:#000000;stroke-width:4.7132988;stroke-linecap:round;stroke-linejoin:miter;stroke-miterlimit:4;stroke-dasharray:none;stroke-dashoffset:0;stroke-opacity:1;marker:none;marker-start:none;marker-mid:none;marker-end:none;enable-background:accumulate"
         d="m 317.25849,281.49678 c 0,0 -3.50087,-38.50932 53.91293,-168.04067" />
      <path
         inkscape:connector-curvature="0"
         id="Green_Stripe"
         d="m 277.53757,132.18359 c -6.04645,2.65234 -6.02101,10.55639 -9.88281,15.25391 3.86343,1.77744 8.97384,-0.79001 13.27734,0.33594 18.23763,0 36.47526,0 54.71289,0 3.96542,-5.55909 8.33942,-10.84148 13.24414,-15.59961 -23.78386,-0.004 -47.56771,-1e-5 -71.35156,0.01 z"
         style="fill:#000000;fill-opacity:1;stroke:none;stroke-opacity:1" />
      <path
         inkscape:connector-curvature="0"
         id="Yellow_Stripe"
         d="m 258.28366,167.56055 c 22.16166,-0.16278 44.32914,0.37865 66.48633,-0.26758 1.95271,-5.43918 4.77585,-10.52967 7.98633,-15.32031 -22.4707,0 -44.94141,0 -67.41211,0 -2.35352,5.19596 -4.70703,10.39192 -7.06055,15.58789 z"
         style="fill:#000000;fill-opacity:1;stroke:none;stroke-opacity:1" />
      <path
         inkscape:connector-curvature="0"
         id="Blue_Stripe"
         d="m 254.69382,175.42578 c -0.75514,3.93981 -5.65658,7.46239 -3.38281,11.56641 18.86862,0.13952 37.755,-0.56107 56.63811,0.0321 3.92685,-0.93675 11.57988,2.65101 12.25058,-2.17343 0.76067,-4.41651 1.75434,-8.79868 3.08006,-13.08129 -22.30339,0 -44.60677,0 -66.91016,0 -0.55859,1.21875 -1.11719,2.4375 -1.67578,3.65625 z"
         style="fill:#000000;fill-opacity:1;stroke:none;stroke-opacity:1" />
      <path
         inkscape:connector-curvature="0"
         id="path2350"
         style="color:#000000;display:inline;overflow:visible;visibility:visible;fill:none;fill-opacity:1;fill-rule:evenodd;stroke:#000000;stroke-width:1.38626432px;stroke-linecap:butt;stroke-linejoin:miter;stroke-miterlimit:4;stroke-dasharray:none;stroke-dashoffset:0;stroke-opacity:1;marker:none;marker-start:none;marker-mid:none;marker-end:none;enable-background:accumulate"
         d="m 320.40919,255.67802 c 0,0 -10.85265,-65.90346 8.75218,-98.11126 19.60469,-32.20779 39.55955,-38.15921 39.55955,-38.15921" />
      <path
         inkscape:connector-curvature="0"
         id="path2430"
         style="color:#000000;display:inline;overflow:visible;visibility:visible;fill:none;fill-opacity:1;fill-rule:evenodd;stroke:#000000;stroke-width:2.77252865;stroke-linecap:butt;stroke-linejoin:miter;stroke-miterlimit:4;stroke-dasharray:none;stroke-dashoffset:0;stroke-opacity:1;marker:none;marker-start:none;marker-mid:none;marker-end:none;enable-background:accumulate"
         d="m -372.18648,204.72833 228.23844,-228.919049 -9.32679,348.198259" />
      <path
         inkscape:connector-curvature="0"
         id="path2432"
         style="color:#000000;display:inline;overflow:visible;visibility:visible;fill:#000000;fill-opacity:1;fill-rule:evenodd;stroke:#000000;stroke-width:1.38626432px;stroke-linecap:butt;stroke-linejoin:miter;stroke-miterlimit:4;stroke-dasharray:none;stroke-dashoffset:0;stroke-opacity:1;marker:none;marker-start:none;marker-mid:none;marker-end:none;enable-background:accumulate"
         d="m -139.75085,-59.12153 -56.01242,371.72968 10.36302,1.03624 45.6494,-372.76592 z" />
      <path
         inkscape:connector-curvature="0"
         id="path2434"
         style="color:#000000;display:inline;overflow:visible;visibility:visible;fill:#000000;fill-opacity:1;fill-rule:evenodd;stroke:#000000;stroke-width:1.38626432px;stroke-linecap:butt;stroke-linejoin:miter;stroke-miterlimit:4;stroke-dasharray:none;stroke-dashoffset:0;stroke-opacity:1;marker:none;marker-start:none;marker-mid:none;marker-end:none;enable-background:accumulate"
         d="m -24.773116,331.26159 c 0,0 13.471994,-16.58083 17.6172011,-43.52468 4.1452075,-26.94399 61.1418799,-393.79564 61.1418799,-393.79564 L 5.2797077,334.37056 -24.773116,331.26159 Z" />
      <path
         inkscape:connector-curvature="0"
         id="path2436"
         style="color:#000000;display:inline;overflow:visible;visibility:visible;fill:#000000;fill-opacity:1;fill-rule:evenodd;stroke:#000000;stroke-width:1.38626432px;stroke-linecap:butt;stroke-linejoin:miter;stroke-miterlimit:4;stroke-dasharray:none;stroke-dashoffset:0;stroke-opacity:1;marker:none;marker-start:none;marker-mid:none;marker-end:none;enable-background:accumulate"
         d="M 182.48768,299.13616 217.79555,27.320963 194.9233,301.20876 l -12.43562,-2.0726 z" />
    </g>
  </g>
</svg>
