<?xml version="1.0" encoding="utf-8"?>
<!-- Svg Vector Icons : http://www.onlinewebfonts.com/icon -->
<!DOCTYPE svg PUBLIC "-//W3C//DTD SVG 1.1//EN" "http://www.w3.org/Graphics/SVG/1.1/DTD/svg11.dtd">
<svg version="1.1" xmlns="http://www.w3.org/2000/svg" xmlns:xlink="http://www.w3.org/1999/xlink" x="0px" y="0px" viewBox="0 0 1000 1000" enable-background="new 0 0 1000 1000" xml:space="preserve">
<metadata> Svg Vector Icons : http://www.onlinewebfonts.com/icon </metadata>
<g><g><g><circle cx="487.3" cy="429.7" r="65.8"/><path d="M367.2,732.1c-10.7-6.6-21.1-13.5-31.4-20.4c-5.3-3.6-9.9-6.7-15.3-10.6l-8.1-5.8l-8.8-6c-23.6-15.8-50.3-28.8-79.9-35.8c-14.8-3.5-30.3-5.2-46-4.4c-7.8,0.5-15.7,1.6-23.4,3.3c-7.7,1.9-15.2,4.4-22.3,7.7c-28.5,13.1-49.8,37.6-56.2,64.9c21.6-17.2,45.1-26.1,67-27.6c22-1.4,42.9,3.8,63.5,12.4c20.6,8.6,40.6,20.9,60.5,34.3c9.3,6.6,20.8,14.9,32.6,22.5c11.5,7.7,23.4,14.6,35.4,21.2c48.2,26.6,99.6,46,152,58.9c26.3,6.3,52.9,11.3,79.7,14.1c26.7,2.9,53.7,4.2,80.6,1.9c-50.1-19-98.3-38.3-145.2-59.6C455,781.7,409.9,758.5,367.2,732.1z"/><path d="M989.9,434.4l-114.5-40.3l-64,8.1l-0.7,1.9L240,228.3l0.8-2L196.9,179L83.4,136.2c-34.5,47.4-32.2,85.4-32.2,85.4l113.6,42.8l64.1-6.7l0.4-1.1l64.5,19.9c-2.2,7.2-1.5,15.3,2.7,22.2c0,0.1,0.1,0.2,0.1,0.2L347,493.5l-16.8,86.3c-36.6-14.9-76-25.4-116.8-26.7c-42.8-1.7-87.1,8-123.5,30c-18.1,10.9-34.4,24.4-48,39.9c-13.5,15.4-24.8,32.6-31.9,51.3c26.7-29.2,59.4-50.1,93.7-61.7c34.4-11.7,70.2-13.4,105-7.7c34.9,5.7,68.9,18.2,101.6,34.4c16.3,8.2,32.5,17,48.1,26.8c15.9,9.6,31.4,19.9,46.6,30.9c7.3,5.2,16.1,11.4,24.5,17.1c8.5,5.7,17,11.3,25.7,16.6c17.6,10.5,35.6,20.5,54.4,29.2c37.6,17.2,78.3,30.7,121.3,34.1c21.4,1.8,43.3,0.9,64.7-3.3c21.3-4.2,42-11.9,60.4-22.8c18.4-10.9,34.7-24.8,47.8-40.8c13.1-15.9,23.5-33.8,29.4-52.8c-24.9,30.7-57,52.9-91,64c-34,11.3-69.7,11.3-104.1,4c-34.5-7.4-68.2-21.4-100.4-38.8c-5.3-2.8-10.4-5.8-15.7-8.8l45.4-142.6l155.3-122.5c0.1,0,0.1,0,0.2-0.1c6.5-3.9,10.8-10.1,12.5-17l65.2,20l-0.5,1.4l44.8,46.3l114.5,40.3C993.1,472.4,989.9,434.4,989.9,434.4z M568.8,480.9c-0.2,0.1-0.4,0.3-0.6,0.4c-118.9,83.2-170.2-47.9-170.2-47.9l-45.9-138.9L678,394.8L568.8,480.9z"/></g></g><g></g><g></g><g></g><g></g><g></g><g></g><g></g><g></g><g></g><g></g><g></g><g></g><g></g><g></g><g></g></g>
</svg>