<?xml version="1.0" encoding="UTF-8" standalone="no"?>
<!DOCTYPE svg PUBLIC "-//W3C//DTD SVG 20010904//EN"
              "http://www.w3.org/TR/2001/REC-SVG-20010904/DTD/svg10.dtd">

<svg xmlns="http://www.w3.org/2000/svg"
     width="1.16667in" height="1.16667in"
     viewBox="0 0 350 350">
  <path id="Selection"
        fill="none" stroke="black" stroke-width="1"
        d="M 172.00,16.54
           C 173.30,16.39 172.85,15.72 175.00,16.54
             177.19,17.79 190.51,30.51 193.00,33.00
             193.00,33.00 242.00,82.00 242.00,82.00
             242.00,82.00 309.00,149.00 309.00,149.00
             309.00,149.00 323.98,164.00 323.98,164.00
             326.03,166.14 328.97,168.72 327.83,172.00
             327.00,174.42 321.19,179.76 319.17,182.00
             319.17,182.00 296.17,207.00 296.17,207.00
             296.17,207.00 215.09,295.00 215.09,295.00
             215.09,295.00 190.17,322.00 190.17,322.00
             187.55,324.89 181.44,332.66 178.00,333.75
             174.23,334.95 170.38,330.35 168.00,328.00
             168.00,328.00 146.00,306.99 146.00,306.99
             146.00,306.99 102.00,264.96 102.00,264.96
             102.00,264.96 87.00,250.09 87.00,250.09
             87.00,250.09 51.00,216.00 51.00,216.00
             51.00,216.00 26.00,192.00 26.00,192.00
             23.47,189.46 17.78,185.02 19.17,181.00
             19.96,178.72 27.41,171.50 29.58,169.00
             29.58,169.00 60.99,135.00 60.99,135.00
             60.99,135.00 93.09,100.00 93.09,100.00
             93.09,100.00 135.83,54.00 135.83,54.00
             135.83,54.00 157.91,30.00 157.91,30.00
             162.36,25.23 166.20,19.50 172.00,16.54 Z
           M 195.00,46.00
           C 190.44,44.70 188.31,40.82 185.32,37.44
             182.18,33.88 176.15,27.98 172.00,26.00
             172.00,26.00 146.91,54.00 146.91,54.00
             144.70,56.37 137.87,62.81 136.66,65.00
             133.59,70.53 143.93,77.50 146.96,76.67
             149.22,76.05 152.42,71.79 154.09,70.00
             159.63,64.04 165.78,55.46 175.00,56.56
             181.43,57.32 185.57,61.81 190.00,65.98
             192.15,68.02 194.71,70.97 198.00,69.83
             200.50,68.96 205.35,63.19 208.00,61.00
             206.76,57.52 206.69,56.79 203.00,56.00
             201.58,51.28 199.99,49.54 195.00,49.00
             195.00,49.00 196.00,47.00 196.00,47.00
             196.00,47.00 195.00,46.00 195.00,46.00 Z
           M 188.00,39.00
           C 188.00,39.00 187.00,39.00 187.00,39.00
             187.00,39.00 188.00,40.00 188.00,40.00
             188.00,40.00 188.00,39.00 188.00,39.00 Z
           M 189.00,40.00
           C 189.00,40.00 188.00,40.00 188.00,40.00
             188.00,40.00 189.00,41.00 189.00,41.00
             189.00,41.00 189.00,40.00 189.00,40.00 Z
           M 190.00,41.00
           C 190.00,41.00 189.00,41.00 189.00,41.00
             189.00,41.00 190.00,42.00 190.00,42.00
             190.00,42.00 190.00,41.00 190.00,41.00 Z
           M 191.00,42.00
           C 191.00,42.00 190.00,42.00 190.00,42.00
             190.00,42.00 191.00,43.00 191.00,43.00
             191.00,43.00 191.00,42.00 191.00,42.00 Z
           M 192.00,43.00
           C 192.00,43.00 191.00,43.00 191.00,43.00
             191.00,43.00 192.00,44.00 192.00,44.00
             192.00,44.00 192.00,43.00 192.00,43.00 Z
           M 193.00,44.00
           C 193.00,44.00 192.00,44.00 192.00,44.00
             192.00,44.00 193.00,45.00 193.00,45.00
             193.00,45.00 193.00,44.00 193.00,44.00 Z
           M 194.00,45.00
           C 194.00,45.00 193.00,45.00 193.00,45.00
             193.00,45.00 194.00,46.00 194.00,46.00
             194.00,46.00 194.00,45.00 194.00,45.00 Z
           M 198.00,51.00
           C 198.00,51.00 199.00,51.00 199.00,51.00
             199.00,51.00 198.00,52.00 198.00,52.00
             198.00,52.00 198.00,51.00 198.00,51.00 Z
           M 213.00,65.00
           C 210.39,62.52 207.83,64.96 207.45,68.02
             207.11,70.68 209.95,75.22 211.00,78.00
             207.25,76.77 207.19,76.22 205.00,73.00
             205.00,73.00 202.00,74.00 202.00,74.00
             202.00,74.00 202.00,71.00 202.00,71.00
             201.31,74.01 200.55,76.01 204.00,77.00
             205.50,84.50 214.01,83.77 215.35,79.84
             216.49,76.49 212.66,70.89 211.00,68.00
             211.00,68.00 212.00,67.00 212.00,67.00
             212.00,67.00 220.00,75.00 220.00,75.00
             220.00,75.00 221.00,71.00 221.00,71.00
             217.48,67.85 218.87,65.35 213.00,65.00 Z
           M 173.00,65.00
           C 168.57,66.82 167.43,67.29 166.00,72.00
             166.00,72.00 177.00,74.00 177.00,74.00
             177.00,74.00 176.00,70.00 176.00,70.00
             176.00,70.00 178.00,71.00 178.00,71.00
             178.00,71.00 173.00,65.00 173.00,65.00 Z
           M 177.00,66.00
           C 177.00,66.00 176.00,66.00 176.00,66.00
             176.00,66.00 177.00,67.00 177.00,67.00
             177.00,67.00 177.00,66.00 177.00,66.00 Z
           M 178.00,67.00
           C 178.00,67.00 177.00,67.00 177.00,67.00
             177.00,67.00 178.00,68.00 178.00,68.00
             178.00,68.00 178.00,67.00 178.00,67.00 Z
           M 179.00,68.00
           C 179.00,68.00 178.00,68.00 178.00,68.00
             178.00,68.00 179.00,69.00 179.00,69.00
             179.00,69.00 179.00,68.00 179.00,68.00 Z
           M 180.00,70.00
           C 180.00,70.00 177.00,77.00 177.00,77.00
             177.00,77.00 172.00,80.00 172.00,80.00
             178.24,78.64 179.56,76.15 180.00,70.00 Z
           M 196.00,69.00
           C 196.00,69.00 197.00,69.00 197.00,69.00
             197.00,69.00 196.00,70.00 196.00,70.00
             196.00,70.00 196.00,69.00 196.00,69.00 Z
           M 166.00,72.00
           C 164.99,75.81 166.48,79.81 171.00,79.00
             171.00,79.00 166.00,72.00 166.00,72.00 Z
           M 225.00,74.00
           C 222.64,76.74 217.39,87.70 218.00,91.00
             218.00,91.00 219.00,89.00 219.00,89.00
             219.00,89.00 220.00,90.00 220.00,90.00
             220.00,90.00 218.00,92.00 218.00,92.00
             218.00,92.00 235.00,85.00 235.00,85.00
             235.00,85.00 233.00,82.00 233.00,82.00
             233.00,82.00 232.00,84.00 232.00,84.00
             232.00,84.00 232.00,81.00 232.00,81.00
             232.00,81.00 226.00,83.00 226.00,83.00
             226.00,83.00 225.00,74.00 225.00,74.00 Z
           M 227.00,76.00
           C 227.00,76.00 226.00,76.00 226.00,76.00
             226.00,76.00 227.00,77.00 227.00,77.00
             227.00,77.00 227.00,76.00 227.00,76.00 Z
           M 127.00,78.00
           C 125.52,78.47 120.40,80.58 124.00,82.00
             125.02,87.16 130.00,90.89 135.00,92.00
             135.00,92.00 143.00,80.00 143.00,80.00
             143.00,80.00 140.00,79.00 140.00,79.00
             138.87,80.52 137.58,82.58 135.70,83.26
             132.35,84.48 127.74,81.08 127.00,78.00 Z
           M 128.00,79.00
           C 128.00,79.00 127.00,79.00 127.00,79.00
             127.00,79.00 128.00,80.00 128.00,80.00
             128.00,80.00 128.00,79.00 128.00,79.00 Z
           M 129.00,80.00
           C 129.00,80.00 128.00,80.00 128.00,80.00
             128.00,80.00 129.00,81.00 129.00,81.00
             129.00,81.00 129.00,80.00 129.00,80.00 Z
           M 206.00,79.00
           C 206.00,79.00 207.00,79.00 207.00,79.00
             207.00,79.00 206.00,80.00 206.00,80.00
             206.00,80.00 206.00,79.00 206.00,79.00 Z
           M 127.00,96.00
           C 128.18,93.61 125.77,91.75 123.98,90.03
             119.70,86.01 117.86,85.55 114.00,90.03
             118.54,94.53 122.26,101.01 129.00,98.00
             129.00,98.00 127.00,96.00 127.00,96.00 Z
           M 238.00,89.00
           C 236.64,85.62 232.49,89.66 232.15,92.04
             231.74,94.94 235.41,99.61 237.00,102.00
             237.00,102.00 236.00,103.00 236.00,103.00
             236.00,103.00 227.00,95.00 227.00,95.00
             227.00,95.00 226.00,99.00 226.00,99.00
             226.00,99.00 228.00,98.00 228.00,98.00
             228.08,106.71 238.50,108.96 240.30,102.89
             241.19,99.88 237.34,93.99 236.00,91.00
             236.00,91.00 245.00,98.00 245.00,98.00
             243.40,94.08 242.52,90.07 238.00,89.00 Z
           M 242.00,89.00
           C 242.00,89.00 241.00,89.00 241.00,89.00
             241.00,89.00 242.00,90.00 242.00,90.00
             242.00,90.00 242.00,89.00 242.00,89.00 Z
           M 133.00,90.00
           C 133.00,90.00 134.00,90.00 134.00,90.00
             134.00,90.00 133.00,91.00 133.00,91.00
             133.00,91.00 133.00,90.00 133.00,90.00 Z
           M 201.00,96.85
           C 200.10,94.27 197.67,94.25 195.00,93.66
             187.24,91.95 183.77,91.96 176.00,92.00
             168.89,92.03 161.81,93.58 155.00,95.59
             124.01,104.76 101.29,130.20 95.61,162.00
             93.40,174.41 93.99,188.83 97.43,201.00
             98.46,204.64 100.15,211.85 104.00,213.00
             103.87,216.22 103.69,217.15 107.00,218.00
             107.00,218.00 106.00,221.00 106.00,221.00
             106.00,221.00 108.00,220.00 108.00,220.00
             107.91,226.73 114.43,232.58 119.00,236.96
             130.84,248.33 149.32,257.80 166.00,258.00
             178.01,258.14 192.98,255.65 204.00,250.83
             233.00,238.14 255.62,205.92 256.00,174.00
             256.23,153.66 252.15,136.26 239.33,120.00
             235.49,115.12 228.51,107.04 222.00,107.00
             222.00,107.00 222.00,104.00 222.00,104.00
             222.00,104.00 218.00,104.00 218.00,104.00
             218.00,104.00 216.00,103.00 216.00,103.00
             216.00,103.00 215.32,101.18 215.32,101.18
             215.32,101.18 204.99,96.85 204.99,96.85
             204.99,96.85 201.00,96.85 201.00,96.85 Z
           M 245.00,93.00
           C 245.00,93.00 244.00,93.00 244.00,93.00
             244.00,93.00 245.00,94.00 245.00,94.00
             245.00,94.00 245.00,93.00 245.00,93.00 Z
           M 167.00,94.00
           C 167.00,94.00 168.00,94.00 168.00,94.00
             168.00,94.00 167.00,95.00 167.00,95.00
             167.00,95.00 167.00,94.00 167.00,94.00 Z
           M 171.00,94.00
           C 171.00,94.00 172.00,94.00 172.00,94.00
             172.00,94.00 171.00,95.00 171.00,95.00
             171.00,95.00 171.00,94.00 171.00,94.00 Z
           M 130.00,96.00
           C 130.00,96.00 129.00,96.00 129.00,96.00
             129.00,96.00 130.00,97.00 130.00,97.00
             130.00,97.00 130.00,96.00 130.00,96.00 Z
           M 109.00,99.00
           C 107.59,95.50 103.74,101.11 103.32,103.00
             102.34,107.47 107.71,115.25 111.00,118.00
             111.00,118.00 115.51,110.13 115.51,110.13
             115.51,110.13 123.00,103.00 123.00,103.00
             123.00,103.00 114.00,101.00 114.00,101.00
             113.08,98.10 111.72,98.66 109.00,99.00 Z
           M 101.00,203.00
           C 101.00,203.00 99.00,180.00 99.00,180.00
             98.99,172.35 98.99,167.65 100.46,160.00
             105.43,134.09 124.20,110.82 149.00,101.59
             153.02,100.09 160.86,97.62 165.00,97.32
             174.74,96.11 182.26,95.70 192.00,97.32
             197.78,98.50 207.54,102.25 212.00,102.00
             212.97,104.30 213.62,103.88 216.00,104.00
             217.06,107.03 228.57,114.56 231.96,118.01
             240.94,127.17 246.99,138.59 250.11,151.00
             259.09,186.79 242.12,226.13 210.00,244.32
             204.66,247.35 198.82,249.20 193.00,251.02
             189.18,252.22 184.92,253.86 181.00,254.46
             171.55,255.91 162.13,254.35 153.00,251.85
             148.31,250.57 143.85,248.44 139.00,248.00
             139.00,248.00 125.00,236.83 125.00,236.83
             125.00,236.83 115.00,229.00 115.00,229.00
             114.36,225.38 113.75,223.10 110.00,222.00
             109.68,216.95 106.84,213.61 104.87,209.00
             103.75,206.36 103.81,204.03 101.00,203.00 Z
           M 258.00,108.00
           C 255.67,103.08 252.92,100.33 248.00,98.00
             248.00,98.00 247.00,99.00 247.00,99.00
             248.62,108.04 244.56,106.27 241.00,114.00
             241.00,114.00 243.00,113.00 243.00,113.00
             244.23,116.96 249.72,109.26 251.74,108.49
             253.24,107.92 255.47,108.67 257.00,109.00
             257.00,109.00 258.00,108.00 258.00,108.00 Z
           M 213.00,99.00
           C 213.00,99.00 212.00,99.00 212.00,99.00
             212.00,99.00 213.00,100.00 213.00,100.00
             213.00,100.00 213.00,99.00 213.00,99.00 Z
           M 171.00,101.00
           C 171.00,101.00 168.00,103.00 168.00,103.00
             168.00,103.00 165.00,102.00 165.00,102.00
             165.00,102.00 164.00,103.00 164.00,103.00
             164.00,103.00 165.00,109.00 165.00,109.00
             165.00,109.00 169.00,109.00 169.00,109.00
             169.00,109.00 167.00,109.00 167.00,109.00
             167.00,109.00 167.00,110.00 167.00,110.00
             167.00,110.00 172.00,113.00 172.00,113.00
             172.00,113.00 168.00,113.00 168.00,113.00
             168.00,113.00 167.00,116.00 167.00,116.00
             173.11,115.42 175.63,114.55 174.00,108.00
             174.00,108.00 170.00,109.00 170.00,109.00
             170.00,109.00 167.00,107.00 167.00,107.00
             167.00,107.00 167.00,104.00 167.00,104.00
             167.00,104.00 171.00,103.00 171.00,103.00
             171.00,103.00 171.00,101.00 171.00,101.00 Z
           M 187.00,101.00
           C 182.88,101.24 178.43,101.67 180.00,107.00
             180.00,107.00 180.00,105.00 180.00,105.00
             180.00,105.00 181.00,106.00 181.00,106.00
             181.00,106.00 180.00,108.00 180.00,108.00
             180.00,108.00 185.00,108.00 185.00,108.00
             185.00,108.00 182.00,104.00 182.00,104.00
             182.00,104.00 186.00,104.00 186.00,104.00
             186.00,104.00 187.00,101.00 187.00,101.00 Z
           M 173.00,102.00
           C 173.00,102.00 172.00,102.00 172.00,102.00
             172.00,102.00 173.00,103.00 173.00,103.00
             173.00,103.00 173.00,102.00 173.00,102.00 Z
           M 188.00,102.00
           C 188.00,102.00 187.00,102.00 187.00,102.00
             187.00,102.00 188.00,103.00 188.00,103.00
             188.00,103.00 188.00,102.00 188.00,102.00 Z
           M 174.00,103.00
           C 174.00,103.00 171.00,105.00 171.00,105.00
             171.00,105.00 174.00,103.00 174.00,103.00 Z
           M 197.00,103.00
           C 193.50,106.75 192.02,111.97 193.00,117.00
             193.00,117.00 197.00,116.00 197.00,116.00
             197.00,116.00 195.00,112.00 195.00,112.00
             195.00,112.00 201.00,110.00 201.00,110.00
             201.00,110.00 197.00,107.00 197.00,107.00
             197.00,107.00 204.00,105.00 204.00,105.00
             204.00,105.00 196.00,106.00 196.00,106.00
             196.00,106.00 197.00,103.00 197.00,103.00 Z
           M 108.00,103.00
           C 112.13,103.71 112.54,104.07 114.00,108.00
             110.01,107.10 109.48,106.85 108.00,103.00 Z
           M 187.00,104.00
           C 187.00,104.00 186.00,104.00 186.00,104.00
             186.00,104.00 187.00,105.00 187.00,105.00
             187.00,105.00 187.00,104.00 187.00,104.00 Z
           M 190.00,104.00
           C 190.00,104.00 189.00,104.00 189.00,104.00
             189.00,104.00 190.00,105.00 190.00,105.00
             190.00,105.00 190.00,104.00 190.00,104.00 Z
           M 189.00,105.00
           C 189.00,105.00 188.00,105.00 188.00,105.00
             188.00,105.00 189.00,106.00 189.00,106.00
             189.00,106.00 189.00,105.00 189.00,105.00 Z
           M 223.00,105.00
           C 223.00,105.00 222.00,105.00 222.00,105.00
             222.00,105.00 223.00,106.00 223.00,106.00
             223.00,106.00 223.00,105.00 223.00,105.00 Z
           M 251.00,104.00
           C 251.00,104.00 252.00,104.00 252.00,104.00
             252.00,104.00 251.00,105.00 251.00,105.00
             251.00,105.00 251.00,104.00 251.00,104.00 Z
           M 205.00,106.00
           C 205.00,106.00 201.00,108.00 201.00,108.00
             201.00,108.00 205.00,106.00 205.00,106.00 Z
           M 151.00,109.00
           C 151.00,109.00 148.00,107.00 148.00,107.00
             148.00,107.00 149.00,111.00 149.00,111.00
             149.00,111.00 151.00,109.00 151.00,109.00 Z
           M 157.00,107.00
           C 157.00,107.00 158.00,113.00 158.00,113.00
             158.00,113.00 157.00,107.00 157.00,107.00 Z
           M 250.00,106.00
           C 250.00,106.00 251.00,106.00 251.00,106.00
             251.00,106.00 250.00,107.00 250.00,107.00
             250.00,107.00 250.00,106.00 250.00,106.00 Z
           M 187.00,108.00
           C 187.00,108.00 188.00,111.00 188.00,111.00
             188.00,111.00 181.00,114.00 181.00,114.00
             180.43,111.54 179.90,111.02 178.00,113.00
             178.00,113.00 180.00,112.00 180.00,112.00
             181.61,118.41 191.93,115.01 187.00,108.00 Z
           M 216.00,111.00
           C 216.00,111.00 210.00,109.00 210.00,109.00
             210.00,109.00 205.00,121.00 205.00,121.00
             205.00,121.00 208.00,118.00 208.00,118.00
             208.00,118.00 212.00,119.00 212.00,119.00
             212.00,119.00 212.00,126.00 212.00,126.00
             215.05,123.00 215.12,122.11 216.00,118.00
             216.00,118.00 210.00,113.00 210.00,113.00
             210.00,113.00 216.00,111.00 216.00,111.00 Z
           M 261.00,109.00
           C 261.00,109.00 260.00,114.00 260.00,114.00
             254.53,113.31 253.27,116.63 249.00,120.00
             251.81,125.22 253.78,127.19 259.00,130.00
             259.00,130.00 260.00,129.00 260.00,129.00
             260.00,129.00 252.00,120.00 252.00,120.00
             252.00,120.00 264.00,123.00 264.00,123.00
             264.00,123.00 259.00,115.00 259.00,115.00
             259.00,115.00 268.00,120.00 268.00,120.00
             268.00,120.00 269.00,119.00 269.00,119.00
             269.00,119.00 261.00,109.00 261.00,109.00 Z
           M 98.00,111.00
           C 90.86,112.16 88.56,117.69 83.00,122.00
             83.00,122.00 86.00,124.00 86.00,124.00
             87.13,129.99 90.24,130.24 94.00,134.00
             94.00,134.00 97.87,133.00 97.87,133.00
             97.36,130.75 95.97,127.50 97.87,125.44
             100.54,122.18 103.27,127.17 107.00,120.00
             103.00,119.27 98.96,114.88 98.00,111.00 Z
           M 141.00,111.00
           C 141.00,111.00 140.00,112.00 140.00,112.00
             140.00,112.00 141.00,112.00 141.00,112.00
             141.00,112.00 143.00,114.00 143.00,114.00
             143.00,114.00 138.00,113.00 138.00,113.00
             138.00,113.00 142.00,120.00 142.00,120.00
             142.00,120.00 144.00,118.00 144.00,118.00
             144.00,118.00 145.00,121.00 145.00,121.00
             145.00,121.00 148.00,119.00 148.00,119.00
             148.00,119.00 146.00,120.00 146.00,120.00
             145.98,117.54 146.38,117.68 144.00,117.00
             144.27,113.30 144.20,112.94 141.00,111.00 Z
           M 161.00,111.00
           C 161.00,111.00 154.00,116.00 154.00,116.00
             154.00,116.00 152.00,119.00 152.00,119.00
             157.30,118.81 157.68,118.79 160.00,114.00
             160.00,114.00 160.00,116.00 160.00,116.00
             160.00,116.00 161.00,116.00 161.00,116.00
             161.00,116.00 161.00,111.00 161.00,111.00 Z
           M 99.00,112.00
           C 99.00,112.00 98.00,112.00 98.00,112.00
             98.00,112.00 99.00,113.00 99.00,113.00
             99.00,113.00 99.00,112.00 99.00,112.00 Z
           M 168.00,112.00
           C 165.88,112.83 165.48,112.67 166.00,115.00
             166.00,115.00 168.00,112.00 168.00,112.00 Z
           M 217.00,112.00
           C 217.00,112.00 216.00,112.00 216.00,112.00
             216.00,112.00 217.00,113.00 217.00,113.00
             217.00,113.00 217.00,112.00 217.00,112.00 Z
           M 100.00,113.00
           C 100.00,113.00 99.00,113.00 99.00,113.00
             99.00,113.00 100.00,114.00 100.00,114.00
             100.00,114.00 100.00,113.00 100.00,113.00 Z
           M 154.00,116.00
           C 154.00,116.00 152.00,113.00 152.00,113.00
             152.00,113.00 150.00,116.00 150.00,116.00
             150.00,116.00 154.00,116.00 154.00,116.00 Z
           M 215.00,113.00
           C 215.00,113.00 216.00,118.00 216.00,118.00
             216.00,118.00 218.00,118.00 218.00,118.00
             218.00,118.00 218.00,113.00 218.00,113.00
             218.00,113.00 215.00,113.00 215.00,113.00 Z
           M 136.00,118.00
           C 133.72,115.80 132.98,117.05 131.00,119.00
             131.00,119.00 136.00,118.00 136.00,118.00 Z
           M 104.00,117.00
           C 104.00,117.00 103.00,117.00 103.00,117.00
             103.00,117.00 104.00,118.00 104.00,118.00
             104.00,118.00 104.00,117.00 104.00,117.00 Z
           M 152.00,117.00
           C 152.00,117.00 151.00,117.00 151.00,117.00
             151.00,117.00 152.00,118.00 152.00,118.00
             152.00,118.00 152.00,117.00 152.00,117.00 Z
           M 202.00,117.00
           C 202.00,117.00 198.00,119.00 198.00,119.00
             198.00,119.00 202.00,117.00 202.00,117.00 Z
           M 90.00,117.00
           C 90.00,117.00 91.00,117.00 91.00,117.00
             91.00,117.00 90.00,118.00 90.00,118.00
             90.00,118.00 90.00,117.00 90.00,117.00 Z
           M 90.00,123.00
           C 91.20,119.15 91.54,119.02 95.00,117.00
             95.57,121.56 94.61,122.76 90.00,123.00 Z
           M 105.00,118.00
           C 105.00,118.00 104.00,118.00 104.00,118.00
             104.00,118.00 105.00,119.00 105.00,119.00
             105.00,119.00 105.00,118.00 105.00,118.00 Z
           M 143.00,126.00
           C 143.78,119.81 139.06,119.18 134.00,118.00
             134.00,118.00 132.00,121.00 132.00,121.00
             132.00,121.00 139.00,127.00 139.00,127.00
             139.00,127.00 137.00,122.00 137.00,122.00
             137.00,122.00 143.00,126.00 143.00,126.00 Z
           M 180.00,118.00
           C 177.01,118.14 169.05,118.07 168.00,121.00
             160.52,119.24 152.13,124.07 146.00,128.08
             130.03,138.52 120.08,157.94 120.08,177.00
             120.08,177.00 121.00,186.00 121.00,186.00
             129.49,184.82 140.92,173.75 150.00,169.00
             148.85,162.48 148.50,160.45 154.00,156.00
             154.00,156.00 149.00,147.00 149.00,147.00
             149.00,147.00 146.00,157.00 146.00,157.00
             141.75,153.37 142.31,152.10 141.00,147.00
             141.00,147.00 140.00,147.00 140.00,147.00
             140.00,147.00 138.00,149.00 138.00,149.00
             139.47,146.01 139.94,145.80 138.00,143.00
             134.53,155.19 136.43,160.38 135.98,163.58
             135.71,165.51 133.87,169.03 133.00,171.00
             129.93,168.31 129.66,168.10 130.00,164.00
             123.47,157.38 129.99,153.62 130.00,146.00
             133.25,145.16 133.88,142.93 136.21,140.58
             138.92,137.83 142.89,134.09 146.00,131.90
             149.15,129.69 152.03,128.96 153.00,125.00
             153.00,125.00 171.00,122.00 171.00,122.00
             171.00,122.00 170.00,120.00 170.00,120.00
             174.27,119.99 176.28,120.41 180.00,118.00 Z
           M 106.00,119.00
           C 106.00,119.00 105.00,119.00 105.00,119.00
             105.00,119.00 106.00,120.00 106.00,120.00
             106.00,120.00 106.00,119.00 106.00,119.00 Z
           M 189.00,119.00
           C 189.00,119.00 182.00,120.00 182.00,120.00
             182.00,120.00 189.00,119.00 189.00,119.00 Z
           M 257.00,118.00
           C 257.00,118.00 258.00,118.00 258.00,118.00
             258.00,118.00 257.00,119.00 257.00,119.00
             257.00,119.00 257.00,118.00 257.00,118.00 Z
           M 149.00,121.00
           C 149.00,121.00 148.00,121.00 148.00,121.00
             148.00,121.00 149.00,122.00 149.00,122.00
             149.00,122.00 149.00,121.00 149.00,121.00 Z
           M 189.00,121.00
           C 189.00,121.00 183.00,122.00 183.00,122.00
             183.00,122.00 189.00,121.00 189.00,121.00 Z
           M 273.00,121.00
           C 273.00,121.00 271.00,121.00 271.00,121.00
             271.00,121.00 263.00,131.00 263.00,131.00
             263.00,131.00 264.00,132.00 264.00,132.00
             264.00,132.00 268.58,128.80 268.58,128.80
             272.58,126.55 272.81,128.67 276.00,124.00
             276.00,124.00 273.00,121.00 273.00,121.00 Z
           M 148.00,122.00
           C 148.00,122.00 147.00,122.00 147.00,122.00
             147.00,122.00 148.00,123.00 148.00,123.00
             148.00,123.00 148.00,122.00 148.00,122.00 Z
           M 199.00,124.00
           C 199.00,124.00 193.00,124.00 193.00,124.00
             193.00,124.00 199.00,124.00 199.00,124.00 Z
           M 201.00,123.00
           C 201.00,123.00 200.00,123.00 200.00,123.00
             200.00,123.00 201.00,124.00 201.00,124.00
             201.00,124.00 201.00,123.00 201.00,123.00 Z
           M 85.00,124.00
           C 85.00,124.00 84.00,124.00 84.00,124.00
             84.00,124.00 85.00,125.00 85.00,125.00
             85.00,125.00 85.00,124.00 85.00,124.00 Z
           M 142.00,123.00
           C 142.00,123.00 143.00,123.00 143.00,123.00
             143.00,123.00 142.00,124.00 142.00,124.00
             142.00,124.00 142.00,123.00 142.00,123.00 Z
           M 205.00,125.00
           C 205.00,125.00 199.00,126.00 199.00,126.00
             199.00,126.00 205.00,125.00 205.00,125.00 Z
           M 137.00,126.00
           C 137.00,126.00 136.00,126.00 136.00,126.00
             136.00,126.00 137.00,127.00 137.00,127.00
             137.00,127.00 137.00,126.00 137.00,126.00 Z
           M 207.00,126.00
           C 207.00,126.00 206.00,126.00 206.00,126.00
             206.00,126.00 207.00,127.00 207.00,127.00
             207.00,127.00 207.00,126.00 207.00,126.00 Z
           M 80.00,127.00
           C 75.16,131.31 70.84,134.53 69.00,141.00
             76.18,139.39 79.07,139.77 84.00,146.00
             84.00,146.00 88.00,141.00 88.00,141.00
             82.82,139.54 80.90,135.98 80.00,131.00
             80.00,131.00 83.00,130.00 83.00,130.00
             83.00,130.00 80.00,127.00 80.00,127.00 Z
           M 82.00,127.00
           C 82.00,127.00 81.00,127.00 81.00,127.00
             81.00,127.00 82.00,128.00 82.00,128.00
             82.00,128.00 82.00,127.00 82.00,127.00 Z
           M 138.00,127.00
           C 138.00,127.00 137.00,127.00 137.00,127.00
             137.00,127.00 138.00,128.00 138.00,128.00
             138.00,128.00 138.00,127.00 138.00,127.00 Z
           M 140.00,127.00
           C 140.00,127.00 139.00,127.00 139.00,127.00
             139.00,127.00 140.00,128.00 140.00,128.00
             140.00,128.00 140.00,127.00 140.00,127.00 Z
           M 204.00,127.00
           C 204.00,127.00 203.00,127.00 203.00,127.00
             203.00,127.00 204.00,128.00 204.00,128.00
             204.00,128.00 204.00,127.00 204.00,127.00 Z
           M 139.00,128.00
           C 139.00,128.00 138.00,128.00 138.00,128.00
             138.00,128.00 139.00,129.00 139.00,129.00
             139.00,129.00 139.00,128.00 139.00,128.00 Z
           M 210.00,128.00
           C 210.00,128.00 209.00,128.00 209.00,128.00
             209.00,128.00 210.00,129.00 210.00,129.00
             210.00,129.00 210.00,128.00 210.00,128.00 Z
           M 98.00,129.00
           C 98.00,129.00 97.00,129.00 97.00,129.00
             97.00,129.00 98.00,130.00 98.00,130.00
             98.00,130.00 98.00,129.00 98.00,129.00 Z
           M 273.00,129.00
           C 273.00,129.00 272.00,129.00 272.00,129.00
             272.00,129.00 273.00,130.00 273.00,130.00
             273.00,130.00 273.00,129.00 273.00,129.00 Z
           M 281.00,129.00
           C 281.00,129.00 274.00,134.00 274.00,134.00
             274.00,134.00 283.00,134.00 283.00,134.00
             283.00,134.00 281.00,129.00 281.00,129.00 Z
           M 200.00,130.00
           C 200.00,130.00 197.00,130.00 197.00,130.00
             197.00,130.00 197.00,134.00 197.00,134.00
             197.00,134.00 192.00,136.00 192.00,136.00
             192.00,136.00 196.00,136.00 196.00,136.00
             196.00,136.00 195.00,141.00 195.00,141.00
             195.00,141.00 202.00,141.00 202.00,141.00
             202.00,141.00 200.00,137.00 200.00,137.00
             200.00,137.00 205.00,137.00 205.00,137.00
             205.00,137.00 203.00,135.00 203.00,135.00
             203.00,135.00 200.00,130.00 200.00,130.00 Z
           M 209.00,130.00
           C 209.00,130.00 208.00,130.00 208.00,130.00
             208.00,130.00 209.00,131.00 209.00,131.00
             209.00,131.00 209.00,130.00 209.00,130.00 Z
           M 210.00,131.00
           C 210.00,131.00 209.00,131.00 209.00,131.00
             209.00,131.00 210.00,132.00 210.00,132.00
             210.00,132.00 210.00,131.00 210.00,131.00 Z
           M 214.00,131.00
           C 214.00,131.00 213.00,131.00 213.00,131.00
             213.00,131.00 214.00,132.00 214.00,132.00
             214.00,132.00 214.00,131.00 214.00,131.00 Z
           M 263.00,131.00
           C 263.00,131.00 261.00,134.00 261.00,134.00
             261.00,134.00 264.00,134.00 264.00,134.00
             264.00,134.00 263.00,131.00 263.00,131.00 Z
           M 198.00,131.00
           C 198.00,131.00 199.00,131.00 199.00,131.00
             199.00,131.00 198.00,132.00 198.00,132.00
             198.00,132.00 198.00,131.00 198.00,131.00 Z
           M 211.00,132.00
           C 211.00,132.00 210.00,132.00 210.00,132.00
             210.00,132.00 211.00,133.00 211.00,133.00
             211.00,133.00 211.00,132.00 211.00,132.00 Z
           M 215.00,132.00
           C 215.00,132.00 214.00,132.00 214.00,132.00
             214.00,132.00 215.00,133.00 215.00,133.00
             215.00,133.00 215.00,132.00 215.00,132.00 Z
           M 273.00,133.00
           C 267.98,132.84 267.19,134.34 266.00,139.00
             270.34,137.71 271.01,137.06 273.00,133.00 Z
           M 213.00,133.00
           C 213.00,133.00 215.00,136.00 215.00,136.00
             215.00,136.00 213.00,133.00 213.00,133.00 Z
           M 216.00,133.00
           C 216.00,133.00 215.00,133.00 215.00,133.00
             215.00,133.00 216.00,134.00 216.00,134.00
             216.00,134.00 216.00,133.00 216.00,133.00 Z
           M 181.00,134.00
           C 178.39,139.08 177.13,144.35 178.00,150.00
             169.46,147.40 174.14,143.00 168.00,139.00
             168.00,139.00 166.00,154.00 166.00,154.00
             171.87,155.54 177.97,152.95 189.00,156.35
             203.21,160.72 215.89,170.31 231.00,171.00
             230.54,165.28 230.83,155.70 226.00,152.00
             226.00,152.00 224.82,147.00 224.82,147.00
             224.04,151.72 225.18,153.64 224.82,155.94
             223.81,159.54 220.71,159.67 218.75,156.84
             217.47,154.98 217.50,151.33 216.93,149.00
             216.14,145.73 214.53,142.96 213.00,140.00
             211.76,141.89 210.65,143.80 210.04,146.00
             209.37,148.39 209.61,160.78 203.09,152.97
             203.09,152.97 200.00,149.00 200.00,149.00
             200.00,149.00 199.02,151.96 199.02,151.96
             194.84,161.94 192.51,148.93 191.63,146.11
             191.12,144.53 190.85,144.31 190.00,143.00
             190.00,143.00 188.00,149.00 188.00,149.00
             188.00,149.00 186.00,149.00 186.00,149.00
             184.46,142.70 185.75,139.00 181.00,134.00 Z
           M 217.00,134.00
           C 217.00,134.00 216.00,134.00 216.00,134.00
             216.00,134.00 217.00,135.00 217.00,135.00
             217.00,135.00 217.00,134.00 217.00,134.00 Z
           M 82.00,135.00
           C 82.00,135.00 81.00,135.00 81.00,135.00
             81.00,135.00 82.00,136.00 82.00,136.00
             82.00,136.00 82.00,135.00 82.00,135.00 Z
           M 159.00,135.00
           C 157.13,138.19 154.21,148.33 156.89,151.40
             158.23,152.94 160.17,152.85 162.00,153.00
             162.00,145.01 162.96,142.28 159.00,135.00 Z
           M 218.00,135.00
           C 218.00,135.00 217.00,135.00 217.00,135.00
             217.00,135.00 218.00,136.00 218.00,136.00
             218.00,136.00 218.00,135.00 218.00,135.00 Z
           M 83.00,136.00
           C 83.00,136.00 82.00,136.00 82.00,136.00
             82.00,136.00 83.00,137.00 83.00,137.00
             83.00,137.00 83.00,136.00 83.00,136.00 Z
           M 216.00,136.00
           C 216.00,136.00 219.00,142.00 219.00,142.00
             219.00,142.00 222.00,142.00 222.00,142.00
             222.00,142.00 216.00,136.00 216.00,136.00 Z
           M 219.00,136.00
           C 219.00,136.00 218.00,136.00 218.00,136.00
             218.00,136.00 219.00,137.00 219.00,137.00
             219.00,137.00 219.00,136.00 219.00,136.00 Z
           M 279.00,136.00
           C 279.00,136.00 276.00,136.00 276.00,136.00
             276.00,136.00 271.00,144.00 271.00,144.00
             275.51,142.52 277.05,140.20 279.00,136.00 Z
           M 84.00,137.00
           C 84.00,137.00 83.00,137.00 83.00,137.00
             83.00,137.00 84.00,138.00 84.00,138.00
             84.00,138.00 84.00,137.00 84.00,137.00 Z
           M 321.00,170.00
           C 318.22,165.50 311.28,159.03 307.16,155.43
             303.53,152.27 292.04,139.24 289.01,138.17
             285.40,136.88 276.47,145.72 277.34,149.04
             277.89,151.16 281.42,154.38 282.99,156.00
             287.29,160.46 291.45,165.36 290.80,172.00
             290.23,177.86 286.00,182.22 282.26,186.41
             281.01,187.80 278.13,190.52 277.71,192.25
             276.94,195.48 284.02,201.88 286.98,202.13
             289.89,202.36 294.81,196.62 296.88,194.49
             301.96,189.26 315.88,173.04 321.00,170.00 Z
           M 85.00,138.00
           C 85.00,138.00 84.00,138.00 84.00,138.00
             84.00,138.00 85.00,139.00 85.00,139.00
             85.00,139.00 85.00,138.00 85.00,138.00 Z
           M 106.00,137.00
           C 106.00,137.00 107.00,137.00 107.00,137.00
             107.00,137.00 106.00,138.00 106.00,138.00
             106.00,138.00 106.00,137.00 106.00,137.00 Z
           M 247.00,137.00
           C 247.00,137.00 248.00,137.00 248.00,137.00
             248.00,137.00 247.00,138.00 247.00,138.00
             247.00,138.00 247.00,137.00 247.00,137.00 Z
           M 86.00,139.00
           C 86.00,139.00 85.00,139.00 85.00,139.00
             85.00,139.00 86.00,140.00 86.00,140.00
             86.00,140.00 86.00,139.00 86.00,139.00 Z
           M 70.00,139.00
           C 70.00,139.00 71.00,139.00 71.00,139.00
             71.00,139.00 70.00,140.00 70.00,140.00
             70.00,140.00 70.00,139.00 70.00,139.00 Z
           M 87.00,140.00
           C 87.00,140.00 86.00,140.00 86.00,140.00
             86.00,140.00 87.00,141.00 87.00,141.00
             87.00,141.00 87.00,140.00 87.00,140.00 Z
           M 158.00,140.00
           C 158.00,140.00 159.00,140.00 159.00,140.00
             159.00,140.00 158.00,141.00 158.00,141.00
             158.00,141.00 158.00,140.00 158.00,140.00 Z
           M 221.00,142.00
           C 221.00,142.00 220.00,142.00 220.00,142.00
             220.00,142.00 221.00,143.00 221.00,143.00
             221.00,143.00 221.00,142.00 221.00,142.00 Z
           M 223.00,142.00
           C 223.00,142.00 222.00,142.00 222.00,142.00
             222.00,142.00 223.00,143.00 223.00,143.00
             223.00,143.00 223.00,142.00 223.00,142.00 Z
           M 66.00,143.00
           C 66.00,143.00 64.00,143.00 64.00,143.00
             64.00,143.00 53.09,155.00 53.09,155.00
             53.09,155.00 38.34,171.42 38.34,171.42
             36.01,173.95 29.87,179.52 30.11,183.00
             30.35,186.49 38.28,193.22 41.00,195.58
             46.21,200.10 61.49,216.08 65.99,218.13
             71.13,220.48 76.30,212.16 77.00,208.00
             77.00,208.00 79.00,209.00 79.00,209.00
             79.00,209.00 76.00,207.00 76.00,207.00
             74.86,200.96 72.87,202.50 69.54,199.03
             66.25,195.60 61.72,188.38 58.00,186.00
             58.00,186.00 60.41,174.00 60.41,174.00
             60.41,174.00 77.00,154.00 77.00,154.00
             77.00,154.00 71.00,146.00 71.00,146.00
             71.00,146.00 65.00,145.00 65.00,145.00
             65.00,145.00 66.00,143.00 66.00,143.00 Z
           M 82.00,143.00
           C 82.00,143.00 81.00,143.00 81.00,143.00
             81.00,143.00 82.00,144.00 82.00,144.00
             82.00,144.00 82.00,143.00 82.00,143.00 Z
           M 169.00,142.00
           C 169.00,142.00 170.00,142.00 170.00,142.00
             170.00,142.00 169.00,143.00 169.00,143.00
             169.00,143.00 169.00,142.00 169.00,142.00 Z
           M 222.00,143.00
           C 222.00,143.00 224.00,148.00 224.00,148.00
             224.00,148.00 224.00,143.00 224.00,143.00
             224.00,143.00 223.00,144.00 223.00,144.00
             223.00,144.00 222.00,143.00 222.00,143.00 Z
           M 83.00,144.00
           C 83.00,144.00 82.00,144.00 82.00,144.00
             82.00,144.00 83.00,145.00 83.00,145.00
             83.00,145.00 83.00,144.00 83.00,144.00 Z
           M 72.00,147.00
           C 72.00,147.00 71.00,147.00 71.00,147.00
             71.00,147.00 72.00,148.00 72.00,148.00
             72.00,148.00 72.00,147.00 72.00,147.00 Z
           M 73.00,148.00
           C 73.00,148.00 72.00,148.00 72.00,148.00
             72.00,148.00 73.00,149.00 73.00,149.00
             73.00,149.00 73.00,148.00 73.00,148.00 Z
           M 74.00,149.00
           C 74.00,149.00 73.00,149.00 73.00,149.00
             73.00,149.00 74.00,150.00 74.00,150.00
             74.00,150.00 74.00,149.00 74.00,149.00 Z
           M 75.00,150.00
           C 75.00,150.00 74.00,150.00 74.00,150.00
             74.00,150.00 75.00,151.00 75.00,151.00
             75.00,151.00 75.00,150.00 75.00,150.00 Z
           M 76.00,151.00
           C 76.00,151.00 75.00,151.00 75.00,151.00
             75.00,151.00 76.00,152.00 76.00,152.00
             76.00,152.00 76.00,151.00 76.00,151.00 Z
           M 140.00,150.00
           C 140.00,150.00 141.00,150.00 141.00,150.00
             141.00,150.00 140.00,151.00 140.00,151.00
             140.00,151.00 140.00,150.00 140.00,150.00 Z
           M 77.00,152.00
           C 77.00,152.00 76.00,152.00 76.00,152.00
             76.00,152.00 77.00,153.00 77.00,153.00
             77.00,153.00 77.00,152.00 77.00,152.00 Z
           M 226.00,155.00
           C 226.00,155.00 227.00,155.00 227.00,155.00
             227.00,155.00 226.00,156.00 226.00,156.00
             226.00,156.00 226.00,155.00 226.00,155.00 Z
           M 162.00,160.00
           C 162.00,160.00 161.00,160.00 161.00,160.00
             161.00,160.00 162.00,161.00 162.00,161.00
             162.00,161.00 162.00,160.00 162.00,160.00 Z
           M 163.00,161.00
           C 163.00,161.00 162.00,161.00 162.00,161.00
             162.00,161.00 163.00,162.00 163.00,162.00
             163.00,162.00 163.00,161.00 163.00,161.00 Z
           M 178.00,161.00
           C 178.00,161.00 176.00,161.00 176.00,161.00
             174.93,164.78 175.30,170.65 173.40,172.43
             170.55,174.60 165.85,170.70 159.00,172.43
             151.69,174.70 145.61,180.17 139.00,183.59
             134.81,185.75 127.20,186.09 123.00,193.00
             123.00,193.00 128.00,192.00 128.00,192.00
             128.00,192.00 123.00,199.00 123.00,199.00
             123.00,199.00 130.00,199.00 130.00,199.00
             130.00,199.00 121.00,205.00 121.00,205.00
             129.58,208.77 127.27,203.56 136.00,201.00
             136.00,201.00 131.00,211.00 131.00,211.00
             131.00,211.00 144.00,200.00 144.00,200.00
             144.00,200.00 141.00,211.00 141.00,211.00
             141.00,211.00 145.18,207.97 145.18,207.97
             145.18,207.97 168.00,202.00 168.00,202.00
             166.68,199.42 165.83,198.05 162.83,197.27
             161.29,196.86 158.03,197.04 156.98,195.69
             156.04,194.49 157.26,193.39 158.22,192.77
             158.22,192.77 162.72,190.99 162.72,190.99
             162.72,190.99 171.00,185.00 171.00,185.00
             171.00,185.00 173.00,189.00 173.00,189.00
             173.00,189.00 176.00,186.00 176.00,186.00
             176.00,186.00 172.00,180.00 172.00,180.00
             172.00,180.00 178.00,187.00 178.00,187.00
             177.72,184.14 178.23,175.74 183.44,179.70
             186.25,181.85 184.14,184.10 189.00,186.00
             189.00,186.00 189.00,182.00 189.00,182.00
             189.00,182.00 197.00,189.00 197.00,189.00
             197.00,189.00 199.00,187.00 199.00,187.00
             198.89,190.02 198.56,190.16 201.00,192.00
             201.00,192.00 200.00,185.00 200.00,185.00
             200.00,185.00 204.00,187.00 204.00,187.00
             204.00,187.00 205.00,175.00 205.00,175.00
             205.00,175.00 192.00,171.00 192.00,171.00
             189.23,174.55 187.11,173.24 185.00,170.00
             185.00,170.00 182.00,168.00 182.00,168.00
             182.00,168.00 177.00,166.00 177.00,166.00
             177.00,166.00 181.00,163.00 181.00,163.00
             181.00,163.00 177.00,163.00 177.00,163.00
             177.00,163.00 178.00,161.00 178.00,161.00 Z
           M 216.00,164.00
           C 216.00,164.00 217.00,161.00 217.00,161.00
             217.00,161.00 219.00,161.00 219.00,161.00
             219.00,161.00 216.00,164.00 216.00,164.00 Z
           M 98.00,163.00
           C 98.00,163.00 99.00,163.00 99.00,163.00
             99.00,163.00 98.00,164.00 98.00,164.00
             98.00,164.00 98.00,163.00 98.00,163.00 Z
           M 166.00,169.00
           C 163.36,164.49 155.40,161.22 153.00,167.00
             159.51,165.58 159.94,167.29 166.00,169.00 Z
           M 224.00,176.00
           C 224.00,176.00 222.00,176.00 222.00,176.00
             222.00,176.00 224.00,186.00 224.00,186.00
             224.00,186.00 228.00,185.00 228.00,185.00
             228.00,185.00 223.00,181.00 223.00,181.00
             223.00,181.00 224.00,176.00 224.00,176.00 Z
           M 225.00,177.00
           C 225.00,177.00 224.00,177.00 224.00,177.00
             224.00,177.00 225.00,178.00 225.00,178.00
             225.00,178.00 225.00,177.00 225.00,177.00 Z
           M 226.00,178.00
           C 226.00,178.00 225.00,178.00 225.00,178.00
             225.00,178.00 226.00,179.00 226.00,179.00
             226.00,179.00 226.00,178.00 226.00,178.00 Z
           M 206.00,180.00
           C 206.00,180.00 205.00,180.00 205.00,180.00
             205.00,180.00 206.00,181.00 206.00,181.00
             206.00,181.00 206.00,180.00 206.00,180.00 Z
           M 207.00,181.00
           C 207.00,181.00 206.00,181.00 206.00,181.00
             206.00,181.00 207.00,182.00 207.00,182.00
             207.00,182.00 207.00,181.00 207.00,181.00 Z
           M 200.00,182.00
           C 200.00,182.00 201.00,182.00 201.00,182.00
             201.00,182.00 200.00,183.00 200.00,183.00
             200.00,183.00 200.00,182.00 200.00,182.00 Z
           M 187.00,187.00
           C 187.00,187.00 186.00,187.00 186.00,187.00
             186.00,187.00 187.00,188.00 187.00,188.00
             187.00,188.00 187.00,187.00 187.00,187.00 Z
           M 191.00,187.00
           C 191.00,187.00 190.00,187.00 190.00,187.00
             190.00,187.00 191.00,188.00 191.00,188.00
             191.00,188.00 191.00,187.00 191.00,187.00 Z
           M 175.00,189.00
           C 175.00,189.00 174.00,189.00 174.00,189.00
             174.00,189.00 175.00,190.00 175.00,190.00
             175.00,190.00 175.00,189.00 175.00,189.00 Z
           M 177.00,189.00
           C 177.00,189.00 176.00,189.00 176.00,189.00
             176.00,189.00 177.00,190.00 177.00,190.00
             177.00,190.00 177.00,189.00 177.00,189.00 Z
           M 193.00,189.00
           C 193.00,189.00 192.00,189.00 192.00,189.00
             192.00,189.00 193.00,190.00 193.00,190.00
             193.00,190.00 193.00,189.00 193.00,189.00 Z
           M 116.00,192.00
           C 114.61,188.64 111.44,192.61 111.00,198.00
             111.00,198.00 108.00,198.00 108.00,198.00
             108.00,198.00 108.00,192.00 108.00,192.00
             100.58,199.80 114.93,204.19 113.00,193.00
             113.00,193.00 118.00,191.00 118.00,191.00
             118.00,191.00 116.00,192.00 116.00,192.00 Z
           M 194.00,190.00
           C 194.00,190.00 193.00,190.00 193.00,190.00
             193.00,190.00 194.00,191.00 194.00,191.00
             194.00,191.00 194.00,190.00 194.00,190.00 Z
           M 243.00,191.00
           C 243.00,191.00 237.00,190.00 237.00,190.00
             237.00,190.00 238.00,194.00 238.00,194.00
             238.00,194.00 243.00,195.00 243.00,195.00
             243.00,195.00 244.00,192.00 244.00,192.00
             244.00,192.00 241.00,192.00 241.00,192.00
             241.00,192.00 243.00,192.00 243.00,192.00
             243.00,192.00 243.00,191.00 243.00,191.00 Z
           M 189.00,191.00
           C 189.00,191.00 188.00,191.00 188.00,191.00
             188.00,191.00 189.00,192.00 189.00,192.00
             189.00,192.00 189.00,191.00 189.00,191.00 Z
           M 195.00,191.00
           C 195.00,191.00 194.00,191.00 194.00,191.00
             194.00,191.00 195.00,192.00 195.00,192.00
             195.00,192.00 195.00,191.00 195.00,191.00 Z
           M 203.00,191.00
           C 203.00,191.00 202.00,191.00 202.00,191.00
             202.00,191.00 200.00,193.00 200.00,193.00
             200.00,193.00 201.00,197.00 201.00,197.00
             201.00,197.00 203.00,195.00 203.00,195.00
             203.00,195.00 206.00,196.00 206.00,196.00
             206.00,196.00 203.00,194.00 203.00,194.00
             203.00,194.00 204.00,192.00 204.00,192.00
             204.00,192.00 203.00,191.00 203.00,191.00 Z
           M 211.00,191.00
           C 211.00,191.00 210.00,191.00 210.00,191.00
             210.00,191.00 211.00,192.00 211.00,192.00
             211.00,192.00 211.00,191.00 211.00,191.00 Z
           M 190.00,192.00
           C 189.38,196.35 191.29,198.97 195.00,201.00
             195.00,201.00 190.00,192.00 190.00,192.00 Z
           M 196.00,192.00
           C 196.00,192.00 197.00,196.00 197.00,196.00
             197.00,196.00 196.00,192.00 196.00,192.00 Z
           M 278.00,193.00
           C 278.00,193.00 279.00,193.00 279.00,193.00
             279.00,193.00 278.00,194.00 278.00,194.00
             278.00,194.00 278.00,193.00 278.00,193.00 Z
           M 173.00,195.00
           C 173.00,195.00 172.00,195.00 172.00,195.00
             172.00,195.00 173.00,196.00 173.00,196.00
             173.00,196.00 173.00,195.00 173.00,195.00 Z
           M 242.00,200.00
           C 239.35,196.72 234.07,194.57 230.00,196.00
             230.00,196.00 242.00,200.00 242.00,200.00 Z
           M 198.00,196.00
           C 198.00,196.00 197.00,196.00 197.00,196.00
             197.00,196.00 198.00,197.00 198.00,197.00
             198.00,197.00 198.00,196.00 198.00,196.00 Z
           M 117.00,197.00
           C 117.00,197.00 116.00,197.00 116.00,197.00
             116.00,197.00 117.00,198.00 117.00,198.00
             117.00,198.00 117.00,197.00 117.00,197.00 Z
           M 225.00,197.00
           C 225.00,197.00 223.00,197.00 223.00,197.00
             223.00,197.00 219.00,205.00 219.00,205.00
             219.00,205.00 225.00,197.00 225.00,197.00 Z
           M 283.09,210.00
           C 283.09,209.28 283.54,208.62 283.09,207.17
             282.60,204.78 276.32,198.92 274.01,198.34
             270.89,197.54 268.51,200.39 269.75,204.00
             269.75,204.00 273.00,210.00 273.00,210.00
             267.10,206.23 266.23,205.36 260.00,209.00
             263.11,214.10 267.54,218.51 273.00,221.00
             273.00,221.00 274.00,220.00 274.00,220.00
             274.00,220.00 268.00,211.00 268.00,211.00
             272.52,213.16 273.85,214.88 279.00,214.00
             279.00,214.00 274.00,205.00 274.00,205.00
             274.00,205.00 283.09,210.00 283.09,210.00 Z
           M 70.00,198.00
           C 70.00,198.00 69.00,198.00 69.00,198.00
             69.00,198.00 70.00,199.00 70.00,199.00
             70.00,199.00 70.00,198.00 70.00,198.00 Z
           M 98.00,197.00
           C 98.00,197.00 99.00,197.00 99.00,197.00
             99.00,197.00 98.00,198.00 98.00,198.00
             98.00,198.00 98.00,197.00 98.00,197.00 Z
           M 71.00,199.00
           C 71.00,199.00 70.00,199.00 70.00,199.00
             70.00,199.00 71.00,200.00 71.00,200.00
             71.00,200.00 71.00,199.00 71.00,199.00 Z
           M 123.00,199.00
           C 123.00,199.00 122.00,199.00 122.00,199.00
             122.00,199.00 123.00,200.00 123.00,200.00
             123.00,200.00 123.00,199.00 123.00,199.00 Z
           M 181.00,199.00
           C 180.11,201.99 180.47,202.32 183.00,204.00
             183.00,204.00 181.00,199.00 181.00,199.00 Z
           M 187.00,199.00
           C 187.00,199.00 188.00,203.00 188.00,203.00
             188.00,203.00 187.00,199.00 187.00,199.00 Z
           M 193.00,201.00
           C 193.00,201.00 192.00,201.00 192.00,201.00
             192.00,201.00 193.00,202.00 193.00,202.00
             193.00,202.00 193.00,201.00 193.00,201.00 Z
           M 234.00,201.00
           C 234.00,201.00 228.00,201.00 228.00,201.00
             228.00,201.00 228.00,203.00 228.00,203.00
             228.00,203.00 234.00,201.00 234.00,201.00 Z
           M 237.00,204.00
           C 237.00,204.00 233.00,203.00 233.00,203.00
             233.00,203.00 237.00,204.00 237.00,204.00 Z
           M 187.00,203.00
           C 187.00,203.00 186.00,203.00 186.00,203.00
             186.00,203.00 187.00,204.00 187.00,204.00
             187.00,204.00 187.00,203.00 187.00,203.00 Z
           M 192.00,204.00
           C 192.00,204.00 191.00,204.00 191.00,204.00
             191.00,204.00 192.00,205.00 192.00,205.00
             192.00,205.00 192.00,204.00 192.00,204.00 Z
           M 227.00,204.00
           C 225.89,207.89 227.24,209.23 231.00,210.00
             234.47,213.62 238.80,209.17 237.00,204.00
             233.67,211.14 231.42,209.47 227.00,204.00 Z
           M 111.00,205.00
           C 109.75,208.59 110.43,209.39 113.00,212.00
             113.00,212.00 111.00,205.00 111.00,205.00 Z
           M 191.00,205.00
           C 191.00,205.00 190.00,205.00 190.00,205.00
             190.00,205.00 191.00,206.00 191.00,206.00
             191.00,206.00 191.00,205.00 191.00,205.00 Z
           M 100.00,205.00
           C 100.00,205.00 101.00,205.00 101.00,205.00
             101.00,205.00 100.00,206.00 100.00,206.00
             100.00,206.00 100.00,205.00 100.00,205.00 Z
           M 218.00,207.00
           C 218.00,207.00 214.00,212.00 214.00,212.00
             214.00,212.00 218.00,207.00 218.00,207.00 Z
           M 224.00,210.00
           C 224.00,210.00 222.00,211.00 222.00,211.00
             224.44,213.76 224.29,213.96 228.00,214.00
             228.00,214.00 224.00,210.00 224.00,210.00 Z
           M 86.00,217.00
           C 85.31,213.45 83.08,209.92 80.00,214.00
             80.00,214.00 82.00,213.00 82.00,213.00
             82.00,213.00 83.00,218.00 83.00,218.00
             83.00,218.00 75.00,228.00 75.00,228.00
             75.00,228.00 77.00,227.00 77.00,227.00
             77.00,227.00 76.00,228.00 76.00,228.00
             76.00,228.00 77.00,230.00 77.00,230.00
             86.63,225.45 83.63,221.04 92.00,225.00
             91.34,220.83 90.41,218.03 86.00,217.00 Z
           M 123.00,212.00
           C 123.00,212.00 120.00,212.00 120.00,212.00
             118.17,214.89 116.38,216.49 117.00,220.00
             117.00,220.00 123.00,212.00 123.00,212.00 Z
           M 214.00,212.00
           C 214.00,212.00 213.00,212.00 213.00,212.00
             213.00,212.00 214.00,213.00 214.00,213.00
             214.00,213.00 214.00,212.00 214.00,212.00 Z
           M 213.00,213.00
           C 213.00,213.00 211.00,213.00 211.00,213.00
             211.00,213.00 210.00,216.00 210.00,216.00
             210.00,216.00 213.00,213.00 213.00,213.00 Z
           M 260.00,214.00
           C 254.48,214.31 253.03,217.50 249.00,221.00
             251.54,226.47 255.51,230.50 261.00,233.00
             261.00,233.00 269.00,225.00 269.00,225.00
             269.00,225.00 268.00,222.00 268.00,222.00
             268.00,222.00 260.00,228.00 260.00,228.00
             260.00,228.00 263.00,218.00 263.00,218.00
             263.00,218.00 254.00,223.00 254.00,223.00
             254.00,223.00 260.00,214.00 260.00,214.00 Z
           M 137.00,214.00
           C 137.00,214.00 138.00,216.00 138.00,216.00
             138.93,220.24 141.22,221.29 145.00,223.00
             145.00,223.00 144.00,219.00 144.00,219.00
             144.00,219.00 137.00,214.00 137.00,214.00 Z
           M 220.00,214.00
           C 220.00,214.00 219.00,214.00 219.00,214.00
             219.00,214.00 220.00,215.00 220.00,215.00
             220.00,215.00 220.00,214.00 220.00,214.00 Z
           M 229.00,214.00
           C 229.00,214.00 228.00,214.00 228.00,214.00
             228.00,214.00 229.00,215.00 229.00,215.00
             229.00,215.00 229.00,214.00 229.00,214.00 Z
           M 224.00,221.00
           C 220.91,216.44 219.33,214.23 215.00,219.00
             215.00,219.00 223.00,222.00 223.00,222.00
             223.00,222.00 224.00,221.00 224.00,221.00 Z
           M 228.00,215.00
           C 228.00,215.00 227.00,215.00 227.00,215.00
             227.00,215.00 228.00,216.00 228.00,216.00
             228.00,216.00 228.00,215.00 228.00,215.00 Z
           M 210.00,216.00
           C 210.00,216.00 209.00,216.00 209.00,216.00
             209.00,216.00 210.00,217.00 210.00,217.00
             210.00,217.00 210.00,216.00 210.00,216.00 Z
           M 229.00,216.00
           C 229.00,216.00 228.00,216.00 228.00,216.00
             228.00,216.00 229.00,217.00 229.00,217.00
             229.00,217.00 229.00,216.00 229.00,216.00 Z
           M 207.00,218.00
           C 207.00,218.00 206.00,218.00 206.00,218.00
             206.00,218.00 207.00,219.00 207.00,219.00
             207.00,219.00 207.00,218.00 207.00,218.00 Z
           M 93.00,220.00
           C 93.00,220.00 92.00,220.00 92.00,220.00
             92.00,220.00 93.00,221.00 93.00,221.00
             93.00,221.00 93.00,220.00 93.00,220.00 Z
           M 124.00,221.00
           C 124.00,221.00 117.00,221.00 117.00,221.00
             117.00,221.00 124.00,223.00 124.00,223.00
             124.00,223.00 124.00,221.00 124.00,221.00 Z
           M 145.00,220.00
           C 145.00,220.00 144.00,220.00 144.00,220.00
             144.00,220.00 145.00,221.00 145.00,221.00
             145.00,221.00 145.00,220.00 145.00,220.00 Z
           M 146.00,221.00
           C 146.00,221.00 145.00,221.00 145.00,221.00
             145.00,221.00 146.00,222.00 146.00,222.00
             146.00,222.00 146.00,221.00 146.00,221.00 Z
           M 131.00,222.00
           C 131.00,222.00 127.00,226.00 127.00,226.00
             127.00,226.00 131.00,222.00 131.00,222.00 Z
           M 148.00,222.00
           C 148.00,222.00 147.00,222.00 147.00,222.00
             147.00,222.00 148.00,223.00 148.00,223.00
             148.00,223.00 148.00,222.00 148.00,222.00 Z
           M 202.00,222.00
           C 202.00,222.00 197.00,225.00 197.00,225.00
             197.00,225.00 202.00,222.00 202.00,222.00 Z
           M 221.00,227.00
           C 216.79,224.42 215.09,222.33 210.00,223.00
             211.68,228.05 212.02,231.23 216.00,235.00
             216.00,235.00 213.00,225.00 213.00,225.00
             213.00,225.00 219.00,229.00 219.00,229.00
             219.00,229.00 218.00,227.00 218.00,227.00
             218.00,227.00 221.00,227.00 221.00,227.00 Z
           M 146.00,223.00
           C 146.00,223.00 145.00,223.00 145.00,223.00
             145.00,223.00 146.00,224.00 146.00,224.00
             146.00,224.00 146.00,223.00 146.00,223.00 Z
           M 138.00,224.00
           C 138.00,224.00 136.00,224.00 136.00,224.00
             136.00,224.00 135.00,227.00 135.00,227.00
             135.00,227.00 138.00,224.00 138.00,224.00 Z
           M 152.00,224.00
           C 152.00,224.00 151.00,224.00 151.00,224.00
             151.00,224.00 152.00,225.00 152.00,225.00
             152.00,225.00 152.00,224.00 152.00,224.00 Z
           M 97.00,225.00
           C 94.56,227.11 84.38,235.92 87.79,239.13
             89.67,240.88 93.14,238.45 95.14,241.20
             97.22,244.06 93.03,244.90 99.00,250.00
             102.56,242.61 112.59,238.03 106.00,236.00
             106.00,236.00 100.00,227.00 100.00,227.00
             100.00,227.00 97.00,225.00 97.00,225.00 Z
           M 246.00,227.00
           C 246.00,227.00 247.11,226.34 247.11,226.34
             247.11,226.34 243.94,227.37 243.94,227.37
             243.94,227.37 237.00,235.00 237.00,235.00
             237.00,235.00 241.00,234.00 241.00,234.00
             241.00,234.00 248.00,240.00 248.00,240.00
             248.00,240.00 251.00,239.00 251.00,239.00
             251.00,239.00 252.00,242.00 252.00,242.00
             252.00,242.00 254.00,238.00 254.00,238.00
             254.00,238.00 252.00,239.00 252.00,239.00
             252.00,239.00 251.00,234.00 251.00,234.00
             251.00,234.00 250.00,233.00 250.00,233.00
             250.00,233.00 248.00,234.00 248.00,234.00
             248.00,234.00 246.00,227.00 246.00,227.00 Z
           M 127.00,226.00
           C 123.90,230.19 126.14,232.63 131.00,232.00
             131.00,232.00 127.00,226.00 127.00,226.00 Z
           M 146.00,231.00
           C 143.93,227.35 143.02,227.01 139.00,226.00
             140.20,232.99 138.07,232.48 136.00,239.00
             141.08,235.81 140.24,231.57 146.00,231.00 Z
           M 156.00,226.00
           C 156.00,226.00 154.00,229.00 154.00,229.00
             154.00,229.00 157.00,229.00 157.00,229.00
             157.00,229.00 156.00,226.00 156.00,226.00 Z
           M 153.00,227.00
           C 153.00,227.00 152.00,227.00 152.00,227.00
             152.00,227.00 153.00,228.00 153.00,228.00
             153.00,228.00 153.00,227.00 153.00,227.00 Z
           M 192.00,227.00
           C 181.48,228.62 178.70,231.13 166.00,230.00
             170.20,234.69 187.61,230.75 192.00,227.00 Z
           M 207.00,227.00
           C 207.00,227.00 207.00,234.00 207.00,234.00
             207.00,234.00 200.00,229.00 200.00,229.00
             202.24,233.82 204.78,237.39 210.00,239.00
             210.00,239.00 207.00,227.00 207.00,227.00 Z
           M 101.00,228.00
           C 101.00,228.00 100.00,228.00 100.00,228.00
             100.00,228.00 101.00,229.00 101.00,229.00
             101.00,229.00 101.00,228.00 101.00,228.00 Z
           M 161.00,228.00
           C 161.00,228.00 157.00,230.00 157.00,230.00
             161.06,230.71 162.49,231.54 166.00,229.00
             166.00,229.00 161.00,230.00 161.00,230.00
             161.00,230.00 161.00,228.00 161.00,228.00 Z
           M 102.00,229.00
           C 102.00,229.00 101.00,229.00 101.00,229.00
             101.00,229.00 102.00,230.00 102.00,230.00
             102.00,230.00 102.00,229.00 102.00,229.00 Z
           M 133.00,229.00
           C 133.00,229.00 132.00,229.00 132.00,229.00
             132.00,229.00 133.00,230.00 133.00,230.00
             133.00,230.00 133.00,229.00 133.00,229.00 Z
           M 220.00,229.00
           C 220.00,229.00 219.00,229.00 219.00,229.00
             219.00,229.00 220.00,230.00 220.00,230.00
             220.00,230.00 220.00,229.00 220.00,229.00 Z
           M 103.00,230.00
           C 103.00,230.00 102.00,230.00 102.00,230.00
             102.00,230.00 103.00,231.00 103.00,231.00
             103.00,231.00 103.00,230.00 103.00,230.00 Z
           M 132.00,230.00
           C 132.00,230.00 131.00,230.00 131.00,230.00
             131.00,230.00 132.00,231.00 132.00,231.00
             132.00,231.00 132.00,230.00 132.00,230.00 Z
           M 104.00,231.00
           C 104.00,231.00 103.00,231.00 103.00,231.00
             103.00,231.00 104.00,232.00 104.00,232.00
             104.00,232.00 104.00,231.00 104.00,231.00 Z
           M 202.00,243.00
           C 200.93,238.45 199.70,233.63 195.00,232.00
             196.86,235.36 197.78,235.27 196.00,239.00
             196.00,239.00 202.00,243.00 202.00,243.00 Z
           M 97.00,232.00
           C 101.23,234.08 101.62,234.28 102.00,239.00
             97.87,237.44 96.83,236.51 97.00,232.00 Z
           M 159.00,238.00
           C 156.73,234.27 156.27,233.93 152.00,233.00
             152.00,233.00 151.00,236.00 151.00,236.00
             151.00,236.00 159.00,238.00 159.00,238.00 Z
           M 192.00,234.00
           C 192.00,234.00 191.00,234.00 191.00,234.00
             191.00,234.00 192.00,235.00 192.00,235.00
             192.00,235.00 192.00,234.00 192.00,234.00 Z
           M 193.00,235.00
           C 191.73,238.47 192.02,240.68 195.00,243.00
             195.00,243.00 193.00,235.00 193.00,235.00 Z
           M 252.00,235.00
           C 252.00,235.00 251.00,235.00 251.00,235.00
             251.00,235.00 252.00,236.00 252.00,236.00
             252.00,236.00 252.00,235.00 252.00,235.00 Z
           M 169.00,238.00
           C 161.47,233.24 161.05,242.77 160.00,248.00
             160.00,248.00 161.00,249.00 161.00,249.00
             161.00,249.00 165.00,247.00 165.00,247.00
             165.00,247.00 162.00,246.00 162.00,246.00
             162.00,246.00 162.00,244.00 162.00,244.00
             162.00,244.00 163.00,243.00 163.00,243.00
             163.00,243.00 168.00,243.00 168.00,243.00
             168.00,243.00 163.00,241.00 163.00,241.00
             163.00,241.00 163.00,239.00 163.00,239.00
             163.00,239.00 169.00,238.00 169.00,238.00 Z
           M 185.00,236.00
           C 185.00,236.00 184.00,236.00 184.00,236.00
             184.00,236.00 185.00,237.00 185.00,237.00
             185.00,237.00 185.00,236.00 185.00,236.00 Z
           M 253.00,236.00
           C 253.00,236.00 252.00,236.00 252.00,236.00
             252.00,236.00 253.00,237.00 253.00,237.00
             253.00,237.00 253.00,236.00 253.00,236.00 Z
           M 152.00,237.00
           C 152.00,237.00 148.00,245.00 148.00,245.00
             148.00,245.00 151.00,241.00 151.00,241.00
             151.00,241.00 155.00,242.00 155.00,242.00
             155.00,242.00 155.00,248.00 155.00,248.00
             155.00,248.00 156.00,240.00 156.00,240.00
             156.00,240.00 152.00,237.00 152.00,237.00 Z
           M 175.00,237.00
           C 175.00,237.00 174.00,238.00 174.00,238.00
             174.00,238.00 178.00,238.00 178.00,238.00
             178.00,238.00 175.00,237.00 175.00,237.00 Z
           M 254.00,237.00
           C 254.00,237.00 253.00,237.00 253.00,237.00
             253.00,237.00 254.00,238.00 254.00,238.00
             254.00,238.00 254.00,237.00 254.00,237.00 Z
           M 238.00,241.00
           C 232.50,236.30 226.80,243.33 226.54,246.98
             226.36,249.56 228.33,252.15 231.04,252.01
             234.61,251.82 235.05,248.57 241.00,248.00
             241.00,248.00 233.00,257.00 233.00,257.00
             236.54,257.61 238.08,257.83 239.00,254.00
             242.55,253.30 243.30,252.55 244.00,249.00
             244.00,249.00 246.00,246.00 246.00,246.00
             246.00,246.00 242.00,242.00 242.00,242.00
             242.00,242.00 230.00,247.00 230.00,247.00
             232.19,242.97 233.77,242.47 238.00,241.00 Z
           M 173.00,240.00
           C 172.23,243.57 175.24,244.47 178.00,246.00
             178.00,246.00 173.00,240.00 173.00,240.00 Z
           M 188.00,240.00
           C 188.00,240.00 183.00,240.00 183.00,240.00
             183.00,240.00 182.00,244.00 182.00,244.00
             182.00,244.00 188.00,240.00 188.00,240.00 Z
           M 251.00,240.00
           C 251.00,240.00 250.00,240.00 250.00,240.00
             250.00,240.00 251.00,241.00 251.00,241.00
             251.00,241.00 251.00,240.00 251.00,240.00 Z
           M 244.00,243.00
           C 244.00,243.00 243.00,243.00 243.00,243.00
             243.00,243.00 244.00,244.00 244.00,244.00
             244.00,244.00 244.00,243.00 244.00,243.00 Z
           M 245.00,244.00
           C 245.00,244.00 244.00,244.00 244.00,244.00
             244.00,244.00 245.00,245.00 245.00,245.00
             245.00,245.00 245.00,244.00 245.00,244.00 Z
           M 116.00,265.00
           C 117.09,261.86 121.78,251.55 121.19,249.06
             119.29,241.06 104.96,249.81 101.00,252.00
             101.00,252.00 108.73,258.27 108.73,258.27
             108.73,258.27 116.00,265.00 116.00,265.00 Z
           M 183.00,245.00
           C 183.41,249.05 187.57,247.23 190.00,246.00
             190.00,246.00 183.00,245.00 183.00,245.00 Z
           M 173.00,247.00
           C 173.04,250.15 175.07,249.10 177.00,248.00
             177.00,248.00 173.00,247.00 173.00,247.00 Z
           M 244.00,247.00
           C 244.00,247.00 245.00,247.00 245.00,247.00
             245.00,247.00 244.00,248.00 244.00,248.00
             244.00,248.00 244.00,247.00 244.00,247.00 Z
           M 165.00,249.00
           C 165.00,249.00 164.00,249.00 164.00,249.00
             164.00,249.00 165.00,250.00 165.00,250.00
             165.00,250.00 165.00,249.00 165.00,249.00 Z
           M 120.00,249.00
           C 120.00,249.00 121.00,249.00 121.00,249.00
             121.00,249.00 120.00,250.00 120.00,250.00
             120.00,250.00 120.00,249.00 120.00,249.00 Z
           M 224.00,250.00
           C 224.00,250.00 220.00,254.00 220.00,254.00
             220.00,254.00 222.00,259.00 222.00,259.00
             222.00,259.00 217.00,259.00 217.00,259.00
             217.00,259.00 218.00,257.00 218.00,257.00
             218.00,257.00 213.00,261.00 213.00,261.00
             213.00,261.00 225.98,265.90 225.98,265.90
             228.96,266.79 230.62,266.22 230.00,263.00
             230.00,263.00 229.00,265.00 229.00,265.00
             228.99,261.83 229.25,260.85 226.00,260.00
             226.00,260.00 227.00,256.00 227.00,256.00
             227.00,256.00 224.00,256.00 224.00,256.00
             224.00,256.00 224.00,250.00 224.00,250.00 Z
           M 130.00,256.00
           C 130.00,256.00 118.00,267.00 118.00,267.00
             118.61,268.04 118.88,269.22 120.29,269.67
             123.15,270.57 130.68,262.47 131.11,259.83
             131.38,258.14 130.61,257.34 130.00,256.00 Z
           M 235.00,256.00
           C 235.00,256.00 236.00,256.00 236.00,256.00
             236.00,256.00 235.00,257.00 235.00,257.00
             235.00,257.00 235.00,256.00 235.00,256.00 Z
           M 137.00,263.00
           C 137.00,263.00 135.00,268.00 135.00,268.00
             133.29,268.28 133.21,268.04 131.58,269.12
             122.22,275.33 129.79,280.92 136.00,285.00
             136.00,285.00 138.00,283.00 138.00,283.00
             138.00,283.00 138.00,282.00 138.00,282.00
             129.98,273.37 134.14,273.44 140.00,266.00
             140.00,266.00 137.00,263.00 137.00,263.00 Z
           M 213.00,265.00
           C 208.52,264.58 205.80,265.91 203.57,270.04
             202.29,272.44 201.68,276.17 205.15,277.00
             207.79,277.63 213.43,274.20 216.00,273.00
             216.00,273.00 210.00,283.00 210.00,283.00
             214.24,282.10 218.12,279.83 220.06,275.71
             221.45,272.77 220.50,268.67 216.94,268.62
             214.56,268.59 209.39,272.61 207.00,274.00
             207.28,268.70 209.62,268.74 213.00,265.00 Z
           M 178.00,267.00
           C 178.00,267.00 178.00,274.00 178.00,274.00
             178.00,274.00 181.00,271.00 181.00,271.00
             181.00,271.00 182.00,275.00 182.00,275.00
             182.11,270.49 181.31,269.92 178.00,267.00 Z
           M 183.00,275.00
           C 183.00,275.00 182.00,275.00 182.00,275.00
             182.00,275.00 183.00,276.00 183.00,276.00
             183.00,276.00 183.00,275.00 183.00,275.00 Z
           M 151.00,277.00
           C 148.64,278.72 140.94,285.32 140.80,288.30
             140.68,290.77 143.45,293.36 145.02,295.00
             149.18,299.35 153.73,305.32 160.00,306.00
             160.00,306.00 162.00,308.00 162.00,308.00
             162.19,309.00 161.76,309.13 162.77,310.91
             164.58,314.13 174.55,322.37 178.00,324.00
             178.00,324.00 195.75,301.00 195.75,301.00
             199.59,295.94 201.68,295.50 203.00,289.00
             203.00,289.00 208.00,289.00 208.00,289.00
             208.00,289.00 208.00,287.00 208.00,287.00
             205.98,285.33 199.86,279.04 197.82,278.87
             194.06,278.57 187.01,287.25 184.00,289.79
             178.40,294.51 176.26,293.20 170.00,295.00
             169.04,291.80 165.94,292.27 163.00,292.00
             163.00,292.00 164.00,289.00 164.00,289.00
             164.00,289.00 151.00,277.00 151.00,277.00 Z
           M 176.00,280.00
           C 176.00,280.00 175.00,280.00 175.00,280.00
             175.00,280.00 176.00,281.00 176.00,281.00
             176.00,281.00 176.00,280.00 176.00,280.00 Z
           M 196.00,280.00
           C 196.00,280.00 194.00,284.00 194.00,284.00
             194.00,284.00 196.00,280.00 196.00,280.00 Z
           M 149.00,282.00
           C 149.00,282.00 153.00,284.00 153.00,284.00
             153.00,284.00 149.00,282.00 149.00,282.00 Z
           M 197.00,283.00
           C 197.00,283.00 198.00,283.00 198.00,283.00
             198.00,283.00 197.00,284.00 197.00,284.00
             197.00,284.00 197.00,283.00 197.00,283.00 Z
           M 199.00,283.00
           C 199.00,283.00 200.00,283.00 200.00,283.00
             200.00,283.00 199.00,284.00 199.00,284.00
             199.00,284.00 199.00,283.00 199.00,283.00 Z
           M 154.00,284.00
           C 154.00,284.00 155.00,284.00 155.00,284.00
             155.00,284.00 154.00,285.00 154.00,285.00
             154.00,285.00 154.00,284.00 154.00,284.00 Z
           M 156.00,286.00
           C 156.00,286.00 157.00,286.00 157.00,286.00
             157.00,286.00 156.00,287.00 156.00,287.00
             156.00,287.00 156.00,286.00 156.00,286.00 Z
           M 203.00,287.00
           C 203.00,287.00 204.00,287.00 204.00,287.00
             204.00,287.00 203.00,288.00 203.00,288.00
             203.00,288.00 203.00,287.00 203.00,287.00 Z
           M 165.00,290.00
           C 165.00,290.00 164.00,290.00 164.00,290.00
             164.00,290.00 165.00,291.00 165.00,291.00
             165.00,291.00 165.00,290.00 165.00,290.00 Z" />
</svg>
