<?xml version="1.0" encoding="UTF-8" standalone="no"?>
<!DOCTYPE svg PUBLIC "-//W3C//DTD SVG 20010904//EN"
              "http://www.w3.org/TR/2001/REC-SVG-20010904/DTD/svg10.dtd">

<svg xmlns="http://www.w3.org/2000/svg"
     width="1.16667in" height="1.16667in"
     viewBox="0 0 350 350">
  <path id="Selection"
        fill="none" stroke="black" stroke-width="1"
        d="M 0.00,0.00
           C 0.00,0.00 350.00,0.00 350.00,0.00
             350.00,0.00 350.00,350.00 350.00,350.00
             350.00,350.00 0.00,350.00 0.00,350.00
             0.00,350.00 0.00,0.00 0.00,0.00 Z
           M 174.00,15.00
           C 174.00,15.00 146.83,43.00 146.83,43.00
             146.83,43.00 109.91,83.00 109.91,83.00
             109.91,83.00 50.91,147.00 50.91,147.00
             50.91,147.00 18.00,183.00 18.00,183.00
             18.00,183.00 67.00,230.04 67.00,230.04
             67.00,230.04 103.00,264.96 103.00,264.96
             103.00,264.96 113.00,274.01 113.00,274.01
             113.00,274.01 157.00,316.09 157.00,316.09
             157.00,316.09 177.00,335.00 177.00,335.00
             177.00,335.00 215.09,294.00 215.09,294.00
             215.09,294.00 284.17,219.00 284.17,219.00
             284.17,219.00 317.42,183.00 317.42,183.00
             317.42,183.00 329.00,169.00 329.00,169.00
             329.00,169.00 309.00,150.00 309.00,150.00
             309.00,150.00 276.00,117.00 276.00,117.00
             276.00,117.00 174.00,15.00 174.00,15.00 Z" />
</svg>
